{"canvas_config":{"height":1920,"ratio":"original","width":1080},"color_space":0,"config":{"adjust_max_index":1,"attachment_info":[],"combination_max_index":3,"export_range":null,"extract_audio_last_index":1,"lyrics_recognition_id":"","lyrics_sync":true,"lyrics_taskinfo":[],"maintrack_adsorb":true,"material_save_mode":0,"multi_language_current":"none","multi_language_list":[],"multi_language_main":"none","multi_language_mode":"none","original_sound_last_index":1,"record_audio_last_index":1,"sticker_max_index":1,"subtitle_keywords_config":null,"subtitle_recognition_id":"","subtitle_sync":true,"subtitle_taskinfo":[],"system_font_list":[],"video_mute":false,"zoom_info_params":null},"cover":null,"create_time":0,"duration":35966666,"extra_info":null,"fps":30.0,"free_render_index_mode_on":false,"group_container":null,"id":"99DA49D5-CED7-460E-9E01-6F3CE9EACC6C","keyframe_graph_list":[],"keyframes":{"adjusts":[],"audios":[],"effects":[],"filters":[],"handwrites":[],"stickers":[],"texts":[],"videos":[]},"last_modified_platform":{"app_id":3704,"app_source":"lv","app_version":"5.9.0","device_id":"fa61b09d971d8b1c6bc04f6b47bac34d","hard_disk_id":"","mac_address":"02dd3951cfabcc5d3d810bdc4de34406","os":"windows","os_version":"10.0.26100"},"materials":{"ai_translates":[],"audio_balances":[],"audio_effects":[{"audio_adjust_params":[{"default_value":0.5,"max_value":1.0,"min_value":0.0,"name":"change_voice_param_center_position","parameterIndex":0,"portIndex":0,"value":1.0},{"default_value":0.5,"max_value":1.0,"min_value":0.0,"name":"change_voice_param_surrounding_frequency","parameterIndex":1,"portIndex":0,"value":0.0}],"category_id":"sound_effect","category_name":"场景音","constant_material_id":"24E2E28C-4261-458a-91D5-3A7F44B9232C","id":"77CF3670-3127-4e48-AD59-8CE31862AD3F","is_ugc":false,"name":"环绕音","path":"C:/Users/Administrator/AppData/Local/JianyingPro/User Data/Cache/effect/5723960/fa9a4cb20d3488bf79e176571d5841f5","production_path":"","resource_id":"7161319847819743780","speaker_id":"","sub_type":1,"time_range":{"duration":0,"start":0},"type":"audio_effect"},{"audio_adjust_params":[{"default_value":0.5,"max_value":1.0,"min_value":0.0,"name":"change_voice_param_center_position","parameterIndex":0,"portIndex":0,"value":0.0},{"default_value":0.5,"max_value":1.0,"min_value":0.0,"name":"change_voice_param_surrounding_frequency","parameterIndex":1,"portIndex":0,"value":1.0}],"category_id":"sound_effect","category_name":"场景音","constant_material_id":"C1B6AD63-AC61-45f3-B3FB-C9A27CDFB047","id":"92FCA733-9C30-49f4-9457-58A915139254","is_ugc":false,"name":"环绕音","path":"C:/Users/Administrator/AppData/Local/JianyingPro/User Data/Cache/effect/5723960/fa9a4cb20d3488bf79e176571d5841f5","production_path":"","resource_id":"7161319847819743780","speaker_id":"","sub_type":1,"time_range":{"duration":0,"start":0},"type":"audio_effect"}],"audio_fades":[],"audio_track_indexes":[],"audios":[{"app_id":0,"category_id":"","category_name":"local","check_flag":3,"copyright_limit_type":"none","duration":166000000,"effect_id":"","formula_id":"","id":"BA5A150F-5673-4aed-843A-AB70D0E63A93","intensifies_path":"","is_ai_clone_tone":false,"is_text_edit_overdub":false,"is_ugc":false,"local_material_id":"5bd4b747-bbf5-4902-b30f-bf4a372afe41","music_id":"54ee26a3-c9f6-4559-9b7a-befabe2c3587","name":"jazz.wav","path":"D:/Code/short_story_demo/templates/jazz.wav","query":"","request_id":"","resource_id":"","search_id":"","source_from":"","source_platform":0,"team_id":"","text_id":"","tone_category_id":"","tone_category_name":"","tone_effect_id":"","tone_effect_name":"","tone_platform":"","tone_second_category_id":"","tone_second_category_name":"","tone_speaker":"","tone_type":"","type":"extract_music","video_id":"","wave_points":[]}],"beats":[{"ai_beats":{"beat_speed_infos":[],"beats_path":"","beats_url":"","melody_path":"","melody_percents":[0.0],"melody_url":""},"enable_ai_beats":false,"gear":404,"gear_count":0,"id":"61F47D25-02B5-4d12-9E47-AC17687EC8D5","mode":404,"type":"beats","user_beats":[],"user_delete_ai_beats":null}],"canvases":[{"album_image":"","blur":0.0,"color":"","id":"A87B32C3-2E86-4dfd-93F8-4FBD3B010A5E","image":"","image_id":"","image_name":"","source_platform":0,"team_id":"","type":"canvas_color"}],"chromas":[],"color_curves":[],"digital_humans":[],"drafts":[{"category_id":"","category_name":"","combination_id":"5E678225-2B76-4e56-BC6B-6F580BEA318E","draft":{"canvas_config":{"height":1920,"ratio":"original","width":1080},"color_space":0,"config":{"adjust_max_index":1,"attachment_info":[],"combination_max_index":1,"export_range":null,"extract_audio_last_index":1,"lyrics_recognition_id":"","lyrics_sync":true,"lyrics_taskinfo":[],"maintrack_adsorb":true,"material_save_mode":0,"multi_language_current":"none","multi_language_list":[],"multi_language_main":"none","multi_language_mode":"none","original_sound_last_index":1,"record_audio_last_index":1,"sticker_max_index":1,"subtitle_keywords_config":null,"subtitle_recognition_id":"","subtitle_sync":true,"subtitle_taskinfo":[],"system_font_list":[],"video_mute":false,"zoom_info_params":null},"cover":null,"create_time":0,"duration":86133333,"extra_info":null,"fps":30.0,"free_render_index_mode_on":false,"group_container":null,"id":"D3026383-8C40-4BE8-B004-ADF930F27429","keyframe_graph_list":[],"keyframes":{"adjusts":[],"audios":[],"effects":[],"filters":[],"handwrites":[],"stickers":[],"texts":[],"videos":[]},"last_modified_platform":{"app_id":0,"app_source":"","app_version":"","device_id":"","hard_disk_id":"","mac_address":"","os":"","os_version":""},"materials":{"ai_translates":[],"audio_balances":[],"audio_effects":[],"audio_fades":[],"audio_track_indexes":[],"audios":[{"app_id":1775,"category_id":"local","category_name":"本地音频","check_flag":1,"copyright_limit_type":"none","duration":5736000,"effect_id":"","formula_id":"","id":"5B9FD6D6-05F8-47AB-A31F-9AEB19514945","intensifies_path":"","is_ai_clone_tone":false,"is_text_edit_overdub":false,"is_ugc":false,"local_material_id":"","music_id":"","name":"story_1_dialogue_0.mp3","path":"##_draftpath_placeholder_0E685133-18CE-45ED-8CB8-2904A212EC80_##/materials/story_1_dialogue_0.mp3","query":"","request_id":"","resource_id":"","search_id":"","source_from":"","source_platform":0,"team_id":"","text_id":"","tone_category_id":"","tone_category_name":"","tone_effect_id":"","tone_effect_name":"","tone_platform":"","tone_second_category_id":"","tone_second_category_name":"","tone_speaker":"","tone_type":"","type":"sound","video_id":"","wave_points":[]},{"app_id":1775,"category_id":"local","category_name":"本地音频","check_flag":1,"copyright_limit_type":"none","duration":4464000,"effect_id":"","formula_id":"","id":"A5995AB3-F515-42AF-85D9-EE2EECB8F323","intensifies_path":"","is_ai_clone_tone":false,"is_text_edit_overdub":false,"is_ugc":false,"local_material_id":"","music_id":"","name":"story_1_dialogue_1.mp3","path":"##_draftpath_placeholder_0E685133-18CE-45ED-8CB8-2904A212EC80_##/materials/story_1_dialogue_1.mp3","query":"","request_id":"","resource_id":"","search_id":"","source_from":"","source_platform":0,"team_id":"","text_id":"","tone_category_id":"","tone_category_name":"","tone_effect_id":"","tone_effect_name":"","tone_platform":"","tone_second_category_id":"","tone_second_category_name":"","tone_speaker":"","tone_type":"","type":"sound","video_id":"","wave_points":[]},{"app_id":1775,"category_id":"local","category_name":"本地音频","check_flag":1,"copyright_limit_type":"none","duration":6384000,"effect_id":"","formula_id":"","id":"75502071-83C0-4886-9FB7-D17806AA2878","intensifies_path":"","is_ai_clone_tone":false,"is_text_edit_overdub":false,"is_ugc":false,"local_material_id":"","music_id":"","name":"story_1_dialogue_2.mp3","path":"##_draftpath_placeholder_0E685133-18CE-45ED-8CB8-2904A212EC80_##/materials/story_1_dialogue_2.mp3","query":"","request_id":"","resource_id":"","search_id":"","source_from":"","source_platform":0,"team_id":"","text_id":"","tone_category_id":"","tone_category_name":"","tone_effect_id":"","tone_effect_name":"","tone_platform":"","tone_second_category_id":"","tone_second_category_name":"","tone_speaker":"","tone_type":"","type":"sound","video_id":"","wave_points":[]},{"app_id":1775,"category_id":"local","category_name":"本地音频","check_flag":1,"copyright_limit_type":"none","duration":4224000,"effect_id":"","formula_id":"","id":"FE25FD25-869A-4E4B-8435-13BD813024DC","intensifies_path":"","is_ai_clone_tone":false,"is_text_edit_overdub":false,"is_ugc":false,"local_material_id":"","music_id":"","name":"story_1_dialogue_3.mp3","path":"##_draftpath_placeholder_0E685133-18CE-45ED-8CB8-2904A212EC80_##/materials/story_1_dialogue_3.mp3","query":"","request_id":"","resource_id":"","search_id":"","source_from":"","source_platform":0,"team_id":"","text_id":"","tone_category_id":"","tone_category_name":"","tone_effect_id":"","tone_effect_name":"","tone_platform":"","tone_second_category_id":"","tone_second_category_name":"","tone_speaker":"","tone_type":"","type":"sound","video_id":"","wave_points":[]},{"app_id":1775,"category_id":"local","category_name":"本地音频","check_flag":1,"copyright_limit_type":"none","duration":4656000,"effect_id":"","formula_id":"","id":"859687C3-210E-40D8-BEF4-4C5953E094B1","intensifies_path":"","is_ai_clone_tone":false,"is_text_edit_overdub":false,"is_ugc":false,"local_material_id":"","music_id":"","name":"story_1_dialogue_4.mp3","path":"##_draftpath_placeholder_0E685133-18CE-45ED-8CB8-2904A212EC80_##/materials/story_1_dialogue_4.mp3","query":"","request_id":"","resource_id":"","search_id":"","source_from":"","source_platform":0,"team_id":"","text_id":"","tone_category_id":"","tone_category_name":"","tone_effect_id":"","tone_effect_name":"","tone_platform":"","tone_second_category_id":"","tone_second_category_name":"","tone_speaker":"","tone_type":"","type":"sound","video_id":"","wave_points":[]},{"app_id":1775,"category_id":"local","category_name":"本地音频","check_flag":1,"copyright_limit_type":"none","duration":5256000,"effect_id":"","formula_id":"","id":"D03A6E62-72FE-46DA-927E-140496D19A79","intensifies_path":"","is_ai_clone_tone":false,"is_text_edit_overdub":false,"is_ugc":false,"local_material_id":"","music_id":"","name":"story_1_dialogue_5.mp3","path":"##_draftpath_placeholder_0E685133-18CE-45ED-8CB8-2904A212EC80_##/materials/story_1_dialogue_5.mp3","query":"","request_id":"","resource_id":"","search_id":"","source_from":"","source_platform":0,"team_id":"","text_id":"","tone_category_id":"","tone_category_name":"","tone_effect_id":"","tone_effect_name":"","tone_platform":"","tone_second_category_id":"","tone_second_category_name":"","tone_speaker":"","tone_type":"","type":"sound","video_id":"","wave_points":[]},{"app_id":1775,"category_id":"local","category_name":"本地音频","check_flag":1,"copyright_limit_type":"none","duration":6096000,"effect_id":"","formula_id":"","id":"EE371D25-2982-44E4-BEF9-D3EB1D96382F","intensifies_path":"","is_ai_clone_tone":false,"is_text_edit_overdub":false,"is_ugc":false,"local_material_id":"","music_id":"","name":"story_1_dialogue_6.mp3","path":"##_draftpath_placeholder_0E685133-18CE-45ED-8CB8-2904A212EC80_##/materials/story_1_dialogue_6.mp3","query":"","request_id":"","resource_id":"","search_id":"","source_from":"","source_platform":0,"team_id":"","text_id":"","tone_category_id":"","tone_category_name":"","tone_effect_id":"","tone_effect_name":"","tone_platform":"","tone_second_category_id":"","tone_second_category_name":"","tone_speaker":"","tone_type":"","type":"sound","video_id":"","wave_points":[]},{"app_id":1775,"category_id":"local","category_name":"本地音频","check_flag":1,"copyright_limit_type":"none","duration":4848000,"effect_id":"","formula_id":"","id":"1AEDBA89-25D0-4EA5-98F9-C4540A117AFC","intensifies_path":"","is_ai_clone_tone":false,"is_text_edit_overdub":false,"is_ugc":false,"local_material_id":"","music_id":"","name":"story_1_dialogue_7.mp3","path":"##_draftpath_placeholder_0E685133-18CE-45ED-8CB8-2904A212EC80_##/materials/story_1_dialogue_7.mp3","query":"","request_id":"","resource_id":"","search_id":"","source_from":"","source_platform":0,"team_id":"","text_id":"","tone_category_id":"","tone_category_name":"","tone_effect_id":"","tone_effect_name":"","tone_platform":"","tone_second_category_id":"","tone_second_category_name":"","tone_speaker":"","tone_type":"","type":"sound","video_id":"","wave_points":[]},{"app_id":1775,"category_id":"local","category_name":"本地音频","check_flag":1,"copyright_limit_type":"none","duration":4536000,"effect_id":"","formula_id":"","id":"70DA20FC-4B4B-4C69-80AA-96B7EF901682","intensifies_path":"","is_ai_clone_tone":false,"is_text_edit_overdub":false,"is_ugc":false,"local_material_id":"","music_id":"","name":"story_1_dialogue_8.mp3","path":"##_draftpath_placeholder_0E685133-18CE-45ED-8CB8-2904A212EC80_##/materials/story_1_dialogue_8.mp3","query":"","request_id":"","resource_id":"","search_id":"","source_from":"","source_platform":0,"team_id":"","text_id":"","tone_category_id":"","tone_category_name":"","tone_effect_id":"","tone_effect_name":"","tone_platform":"","tone_second_category_id":"","tone_second_category_name":"","tone_speaker":"","tone_type":"","type":"sound","video_id":"","wave_points":[]},{"app_id":1775,"category_id":"local","category_name":"本地音频","check_flag":1,"copyright_limit_type":"none","duration":11328000,"effect_id":"","formula_id":"","id":"1001E729-EA6E-4C53-9B7A-768B5603EC29","intensifies_path":"","is_ai_clone_tone":false,"is_text_edit_overdub":false,"is_ugc":false,"local_material_id":"","music_id":"","name":"story_1_dialogue_9.mp3","path":"##_draftpath_placeholder_0E685133-18CE-45ED-8CB8-2904A212EC80_##/materials/story_1_dialogue_9.mp3","query":"","request_id":"","resource_id":"","search_id":"","source_from":"","source_platform":0,"team_id":"","text_id":"","tone_category_id":"","tone_category_name":"","tone_effect_id":"","tone_effect_name":"","tone_platform":"","tone_second_category_id":"","tone_second_category_name":"","tone_speaker":"","tone_type":"","type":"sound","video_id":"","wave_points":[]},{"app_id":1775,"category_id":"local","category_name":"本地音频","check_flag":1,"copyright_limit_type":"none","duration":8640000,"effect_id":"","formula_id":"","id":"9A4CB105-2837-461E-ABF7-9EF283DB9040","intensifies_path":"","is_ai_clone_tone":false,"is_text_edit_overdub":false,"is_ugc":false,"local_material_id":"","music_id":"","name":"story_1_dialogue_10.mp3","path":"##_draftpath_placeholder_0E685133-18CE-45ED-8CB8-2904A212EC80_##/materials/story_1_dialogue_10.mp3","query":"","request_id":"","resource_id":"","search_id":"","source_from":"","source_platform":0,"team_id":"","text_id":"","tone_category_id":"","tone_category_name":"","tone_effect_id":"","tone_effect_name":"","tone_platform":"","tone_second_category_id":"","tone_second_category_name":"","tone_speaker":"","tone_type":"","type":"sound","video_id":"","wave_points":[]},{"app_id":1775,"category_id":"local","category_name":"本地音频","check_flag":1,"copyright_limit_type":"none","duration":6696000,"effect_id":"","formula_id":"","id":"11B6D487-B718-4FA5-A6DE-CB962ECF5E4E","intensifies_path":"","is_ai_clone_tone":false,"is_text_edit_overdub":false,"is_ugc":false,"local_material_id":"","music_id":"","name":"story_1_dialogue_11.mp3","path":"##_draftpath_placeholder_0E685133-18CE-45ED-8CB8-2904A212EC80_##/materials/story_1_dialogue_11.mp3","query":"","request_id":"","resource_id":"","search_id":"","source_from":"","source_platform":0,"team_id":"","text_id":"","tone_category_id":"","tone_category_name":"","tone_effect_id":"","tone_effect_name":"","tone_platform":"","tone_second_category_id":"","tone_second_category_name":"","tone_speaker":"","tone_type":"","type":"sound","video_id":"","wave_points":[]},{"app_id":1775,"category_id":"local","category_name":"本地音频","check_flag":1,"copyright_limit_type":"none","duration":7944000,"effect_id":"","formula_id":"","id":"A2DAB74B-71F4-4EE1-9C4D-A6D1385EDAA2","intensifies_path":"","is_ai_clone_tone":false,"is_text_edit_overdub":false,"is_ugc":false,"local_material_id":"","music_id":"","name":"story_1_dialogue_12.mp3","path":"##_draftpath_placeholder_0E685133-18CE-45ED-8CB8-2904A212EC80_##/materials/story_1_dialogue_12.mp3","query":"","request_id":"","resource_id":"","search_id":"","source_from":"","source_platform":0,"team_id":"","text_id":"","tone_category_id":"","tone_category_name":"","tone_effect_id":"","tone_effect_name":"","tone_platform":"","tone_second_category_id":"","tone_second_category_name":"","tone_speaker":"","tone_type":"","type":"sound","video_id":"","wave_points":[]},{"app_id":1775,"category_id":"local","category_name":"本地音频","check_flag":1,"copyright_limit_type":"none","duration":4992000,"effect_id":"","formula_id":"","id":"F90A47C3-6AAD-4C70-9DB3-ECFFC45D7C0B","intensifies_path":"","is_ai_clone_tone":false,"is_text_edit_overdub":false,"is_ugc":false,"local_material_id":"","music_id":"","name":"story_1_dialogue_13.mp3","path":"##_draftpath_placeholder_0E685133-18CE-45ED-8CB8-2904A212EC80_##/materials/story_1_dialogue_13.mp3","query":"","request_id":"","resource_id":"","search_id":"","source_from":"","source_platform":0,"team_id":"","text_id":"","tone_category_id":"","tone_category_name":"","tone_effect_id":"","tone_effect_name":"","tone_platform":"","tone_second_category_id":"","tone_second_category_name":"","tone_speaker":"","tone_type":"","type":"sound","video_id":"","wave_points":[]}],"beats":[],"canvases":[{"album_image":"","blur":0.375,"color":"","id":"7FA00945-4DD3-4eae-8B9D-CAB1DB907A2C","image":"","image_id":"","image_name":"","source_platform":0,"team_id":"","type":"canvas_blur"},{"album_image":"","blur":0.375,"color":"","id":"7FA00945-4DD3-4eae-8B9D-CAB1DB907A2C","image":"","image_id":"","image_name":"","source_platform":0,"team_id":"","type":"canvas_blur"},{"album_image":"","blur":0.375,"color":"","id":"7FA00945-4DD3-4eae-8B9D-CAB1DB907A2C","image":"","image_id":"","image_name":"","source_platform":0,"team_id":"","type":"canvas_blur"},{"album_image":"","blur":0.375,"color":"","id":"7FA00945-4DD3-4eae-8B9D-CAB1DB907A2C","image":"","image_id":"","image_name":"","source_platform":0,"team_id":"","type":"canvas_blur"},{"album_image":"","blur":0.375,"color":"","id":"7FA00945-4DD3-4eae-8B9D-CAB1DB907A2C","image":"","image_id":"","image_name":"","source_platform":0,"team_id":"","type":"canvas_blur"},{"album_image":"","blur":0.375,"color":"","id":"7FA00945-4DD3-4eae-8B9D-CAB1DB907A2C","image":"","image_id":"","image_name":"","source_platform":0,"team_id":"","type":"canvas_blur"},{"album_image":"","blur":0.375,"color":"","id":"7FA00945-4DD3-4eae-8B9D-CAB1DB907A2C","image":"","image_id":"","image_name":"","source_platform":0,"team_id":"","type":"canvas_blur"},{"album_image":"","blur":0.375,"color":"","id":"7FA00945-4DD3-4eae-8B9D-CAB1DB907A2C","image":"","image_id":"","image_name":"","source_platform":0,"team_id":"","type":"canvas_blur"},{"album_image":"","blur":0.375,"color":"","id":"7FA00945-4DD3-4eae-8B9D-CAB1DB907A2C","image":"","image_id":"","image_name":"","source_platform":0,"team_id":"","type":"canvas_blur"},{"album_image":"","blur":0.375,"color":"","id":"7FA00945-4DD3-4eae-8B9D-CAB1DB907A2C","image":"","image_id":"","image_name":"","source_platform":0,"team_id":"","type":"canvas_blur"},{"album_image":"","blur":0.375,"color":"","id":"7FA00945-4DD3-4eae-8B9D-CAB1DB907A2C","image":"","image_id":"","image_name":"","source_platform":0,"team_id":"","type":"canvas_blur"},{"album_image":"","blur":0.375,"color":"","id":"7FA00945-4DD3-4eae-8B9D-CAB1DB907A2C","image":"","image_id":"","image_name":"","source_platform":0,"team_id":"","type":"canvas_blur"},{"album_image":"","blur":0.375,"color":"","id":"7FA00945-4DD3-4eae-8B9D-CAB1DB907A2C","image":"","image_id":"","image_name":"","source_platform":0,"team_id":"","type":"canvas_blur"},{"album_image":"","blur":0.375,"color":"","id":"7FA00945-4DD3-4eae-8B9D-CAB1DB907A2C","image":"","image_id":"","image_name":"","source_platform":0,"team_id":"","type":"canvas_blur"},{"album_image":"","blur":0.375,"color":"","id":"7FA00945-4DD3-4eae-8B9D-CAB1DB907A2C","image":"","image_id":"","image_name":"","source_platform":0,"team_id":"","type":"canvas_blur"},{"album_image":"","blur":0.375,"color":"","id":"7FA00945-4DD3-4eae-8B9D-CAB1DB907A2C","image":"","image_id":"","image_name":"","source_platform":0,"team_id":"","type":"canvas_blur"},{"album_image":"","blur":0.375,"color":"","id":"7FA00945-4DD3-4eae-8B9D-CAB1DB907A2C","image":"","image_id":"","image_name":"","source_platform":0,"team_id":"","type":"canvas_blur"},{"album_image":"","blur":0.375,"color":"","id":"7FA00945-4DD3-4eae-8B9D-CAB1DB907A2C","image":"","image_id":"","image_name":"","source_platform":0,"team_id":"","type":"canvas_blur"},{"album_image":"","blur":0.375,"color":"","id":"7FA00945-4DD3-4eae-8B9D-CAB1DB907A2C","image":"","image_id":"","image_name":"","source_platform":0,"team_id":"","type":"canvas_blur"},{"album_image":"","blur":0.375,"color":"","id":"7FA00945-4DD3-4eae-8B9D-CAB1DB907A2C","image":"","image_id":"","image_name":"","source_platform":0,"team_id":"","type":"canvas_blur"},{"album_image":"","blur":0.375,"color":"","id":"7FA00945-4DD3-4eae-8B9D-CAB1DB907A2C","image":"","image_id":"","image_name":"","source_platform":0,"team_id":"","type":"canvas_blur"},{"album_image":"","blur":0.375,"color":"","id":"7FA00945-4DD3-4eae-8B9D-CAB1DB907A2C","image":"","image_id":"","image_name":"","source_platform":0,"team_id":"","type":"canvas_blur"},{"album_image":"","blur":0.375,"color":"","id":"7FA00945-4DD3-4eae-8B9D-CAB1DB907A2C","image":"","image_id":"","image_name":"","source_platform":0,"team_id":"","type":"canvas_blur"},{"album_image":"","blur":0.375,"color":"","id":"7FA00945-4DD3-4eae-8B9D-CAB1DB907A2C","image":"","image_id":"","image_name":"","source_platform":0,"team_id":"","type":"canvas_blur"},{"album_image":"","blur":0.375,"color":"","id":"7FA00945-4DD3-4eae-8B9D-CAB1DB907A2C","image":"","image_id":"","image_name":"","source_platform":0,"team_id":"","type":"canvas_blur"}],"chromas":[],"color_curves":[],"digital_humans":[],"drafts":[],"effects":[],"flowers":[],"green_screens":[],"handwrites":[],"hsl":[],"images":[],"log_color_wheels":[],"loudnesses":[],"manual_deformations":[],"masks":[],"material_animations":[],"material_colors":[],"multi_language_refs":[],"placeholders":[],"plugin_effects":[],"primary_color_wheels":[],"realtime_denoises":[],"shapes":[],"smart_crops":[],"smart_relights":[],"sound_channel_mappings":[{"audio_channel_mapping":0,"id":"3CCF409B-85B0-46b6-B610-44C6F5A97800","is_config_open":false,"type":"none"},{"audio_channel_mapping":0,"id":"3CCF409B-85B0-46b6-B610-44C6F5A97800","is_config_open":false,"type":"none"},{"audio_channel_mapping":0,"id":"3CCF409B-85B0-46b6-B610-44C6F5A97800","is_config_open":false,"type":"none"},{"audio_channel_mapping":0,"id":"3CCF409B-85B0-46b6-B610-44C6F5A97800","is_config_open":false,"type":"none"},{"audio_channel_mapping":0,"id":"3CCF409B-85B0-46b6-B610-44C6F5A97800","is_config_open":false,"type":"none"},{"audio_channel_mapping":0,"id":"3CCF409B-85B0-46b6-B610-44C6F5A97800","is_config_open":false,"type":"none"},{"audio_channel_mapping":0,"id":"3CCF409B-85B0-46b6-B610-44C6F5A97800","is_config_open":false,"type":"none"},{"audio_channel_mapping":0,"id":"3CCF409B-85B0-46b6-B610-44C6F5A97800","is_config_open":false,"type":"none"},{"audio_channel_mapping":0,"id":"3CCF409B-85B0-46b6-B610-44C6F5A97800","is_config_open":false,"type":"none"},{"audio_channel_mapping":0,"id":"3CCF409B-85B0-46b6-B610-44C6F5A97800","is_config_open":false,"type":"none"},{"audio_channel_mapping":0,"id":"3CCF409B-85B0-46b6-B610-44C6F5A97800","is_config_open":false,"type":"none"},{"audio_channel_mapping":0,"id":"3CCF409B-85B0-46b6-B610-44C6F5A97800","is_config_open":false,"type":"none"},{"audio_channel_mapping":0,"id":"3CCF409B-85B0-46b6-B610-44C6F5A97800","is_config_open":false,"type":"none"},{"audio_channel_mapping":0,"id":"3CCF409B-85B0-46b6-B610-44C6F5A97800","is_config_open":false,"type":"none"},{"audio_channel_mapping":0,"id":"3CCF409B-85B0-46b6-B610-44C6F5A97800","is_config_open":false,"type":"none"},{"audio_channel_mapping":0,"id":"3CCF409B-85B0-46b6-B610-44C6F5A97800","is_config_open":false,"type":"none"},{"audio_channel_mapping":0,"id":"3CCF409B-85B0-46b6-B610-44C6F5A97800","is_config_open":false,"type":"none"},{"audio_channel_mapping":0,"id":"3CCF409B-85B0-46b6-B610-44C6F5A97800","is_config_open":false,"type":"none"},{"audio_channel_mapping":0,"id":"3CCF409B-85B0-46b6-B610-44C6F5A97800","is_config_open":false,"type":"none"},{"audio_channel_mapping":0,"id":"3CCF409B-85B0-46b6-B610-44C6F5A97800","is_config_open":false,"type":"none"},{"audio_channel_mapping":0,"id":"3CCF409B-85B0-46b6-B610-44C6F5A97800","is_config_open":false,"type":"none"},{"audio_channel_mapping":0,"id":"3CCF409B-85B0-46b6-B610-44C6F5A97800","is_config_open":false,"type":"none"},{"audio_channel_mapping":0,"id":"3CCF409B-85B0-46b6-B610-44C6F5A97800","is_config_open":false,"type":"none"},{"audio_channel_mapping":0,"id":"3CCF409B-85B0-46b6-B610-44C6F5A97800","is_config_open":false,"type":"none"},{"audio_channel_mapping":0,"id":"3CCF409B-85B0-46b6-B610-44C6F5A97800","is_config_open":false,"type":"none"},{"audio_channel_mapping":0,"id":"163B164F-ED35-4f10-B9E2-6673A6AA84F4","is_config_open":false,"type":"none"},{"audio_channel_mapping":0,"id":"163B164F-ED35-4f10-B9E2-6673A6AA84F4","is_config_open":false,"type":"none"},{"audio_channel_mapping":0,"id":"163B164F-ED35-4f10-B9E2-6673A6AA84F4","is_config_open":false,"type":"none"},{"audio_channel_mapping":0,"id":"163B164F-ED35-4f10-B9E2-6673A6AA84F4","is_config_open":false,"type":"none"},{"audio_channel_mapping":0,"id":"163B164F-ED35-4f10-B9E2-6673A6AA84F4","is_config_open":false,"type":"none"},{"audio_channel_mapping":0,"id":"163B164F-ED35-4f10-B9E2-6673A6AA84F4","is_config_open":false,"type":"none"},{"audio_channel_mapping":0,"id":"163B164F-ED35-4f10-B9E2-6673A6AA84F4","is_config_open":false,"type":"none"},{"audio_channel_mapping":0,"id":"163B164F-ED35-4f10-B9E2-6673A6AA84F4","is_config_open":false,"type":"none"},{"audio_channel_mapping":0,"id":"163B164F-ED35-4f10-B9E2-6673A6AA84F4","is_config_open":false,"type":"none"},{"audio_channel_mapping":0,"id":"163B164F-ED35-4f10-B9E2-6673A6AA84F4","is_config_open":false,"type":"none"},{"audio_channel_mapping":0,"id":"163B164F-ED35-4f10-B9E2-6673A6AA84F4","is_config_open":false,"type":"none"},{"audio_channel_mapping":0,"id":"163B164F-ED35-4f10-B9E2-6673A6AA84F4","is_config_open":false,"type":"none"},{"audio_channel_mapping":0,"id":"163B164F-ED35-4f10-B9E2-6673A6AA84F4","is_config_open":false,"type":"none"},{"audio_channel_mapping":0,"id":"163B164F-ED35-4f10-B9E2-6673A6AA84F4","is_config_open":false,"type":"none"}],"speeds":[{"curve_speed":null,"id":"09E7FFDD-FD61-4f10-87A5-E5D832FFF755","mode":0,"speed":1.0,"type":"speed"},{"curve_speed":null,"id":"09E7FFDD-FD61-4f10-87A5-E5D832FFF755","mode":0,"speed":1.0,"type":"speed"},{"curve_speed":null,"id":"09E7FFDD-FD61-4f10-87A5-E5D832FFF755","mode":0,"speed":1.0,"type":"speed"},{"curve_speed":null,"id":"09E7FFDD-FD61-4f10-87A5-E5D832FFF755","mode":0,"speed":1.0,"type":"speed"},{"curve_speed":null,"id":"09E7FFDD-FD61-4f10-87A5-E5D832FFF755","mode":0,"speed":1.0,"type":"speed"},{"curve_speed":null,"id":"09E7FFDD-FD61-4f10-87A5-E5D832FFF755","mode":0,"speed":1.0,"type":"speed"},{"curve_speed":null,"id":"09E7FFDD-FD61-4f10-87A5-E5D832FFF755","mode":0,"speed":1.0,"type":"speed"},{"curve_speed":null,"id":"09E7FFDD-FD61-4f10-87A5-E5D832FFF755","mode":0,"speed":1.0,"type":"speed"},{"curve_speed":null,"id":"09E7FFDD-FD61-4f10-87A5-E5D832FFF755","mode":0,"speed":1.0,"type":"speed"},{"curve_speed":null,"id":"09E7FFDD-FD61-4f10-87A5-E5D832FFF755","mode":0,"speed":1.0,"type":"speed"},{"curve_speed":null,"id":"09E7FFDD-FD61-4f10-87A5-E5D832FFF755","mode":0,"speed":1.0,"type":"speed"},{"curve_speed":null,"id":"09E7FFDD-FD61-4f10-87A5-E5D832FFF755","mode":0,"speed":1.0,"type":"speed"},{"curve_speed":null,"id":"09E7FFDD-FD61-4f10-87A5-E5D832FFF755","mode":0,"speed":1.0,"type":"speed"},{"curve_speed":null,"id":"09E7FFDD-FD61-4f10-87A5-E5D832FFF755","mode":0,"speed":1.0,"type":"speed"},{"curve_speed":null,"id":"09E7FFDD-FD61-4f10-87A5-E5D832FFF755","mode":0,"speed":1.0,"type":"speed"},{"curve_speed":null,"id":"09E7FFDD-FD61-4f10-87A5-E5D832FFF755","mode":0,"speed":1.0,"type":"speed"},{"curve_speed":null,"id":"09E7FFDD-FD61-4f10-87A5-E5D832FFF755","mode":0,"speed":1.0,"type":"speed"},{"curve_speed":null,"id":"09E7FFDD-FD61-4f10-87A5-E5D832FFF755","mode":0,"speed":1.0,"type":"speed"},{"curve_speed":null,"id":"09E7FFDD-FD61-4f10-87A5-E5D832FFF755","mode":0,"speed":1.0,"type":"speed"},{"curve_speed":null,"id":"09E7FFDD-FD61-4f10-87A5-E5D832FFF755","mode":0,"speed":1.0,"type":"speed"},{"curve_speed":null,"id":"09E7FFDD-FD61-4f10-87A5-E5D832FFF755","mode":0,"speed":1.0,"type":"speed"},{"curve_speed":null,"id":"09E7FFDD-FD61-4f10-87A5-E5D832FFF755","mode":0,"speed":1.0,"type":"speed"},{"curve_speed":null,"id":"09E7FFDD-FD61-4f10-87A5-E5D832FFF755","mode":0,"speed":1.0,"type":"speed"},{"curve_speed":null,"id":"09E7FFDD-FD61-4f10-87A5-E5D832FFF755","mode":0,"speed":1.0,"type":"speed"},{"curve_speed":null,"id":"09E7FFDD-FD61-4f10-87A5-E5D832FFF755","mode":0,"speed":1.0,"type":"speed"},{"curve_speed":null,"id":"1CE5339B-97F5-42ec-9501-1AE6DAAD7A81","mode":0,"speed":1.0,"type":"speed"},{"curve_speed":null,"id":"1CE5339B-97F5-42ec-9501-1AE6DAAD7A81","mode":0,"speed":1.0,"type":"speed"},{"curve_speed":null,"id":"1CE5339B-97F5-42ec-9501-1AE6DAAD7A81","mode":0,"speed":1.0,"type":"speed"},{"curve_speed":null,"id":"1CE5339B-97F5-42ec-9501-1AE6DAAD7A81","mode":0,"speed":1.0,"type":"speed"},{"curve_speed":null,"id":"1CE5339B-97F5-42ec-9501-1AE6DAAD7A81","mode":0,"speed":1.0,"type":"speed"},{"curve_speed":null,"id":"1CE5339B-97F5-42ec-9501-1AE6DAAD7A81","mode":0,"speed":1.0,"type":"speed"},{"curve_speed":null,"id":"1CE5339B-97F5-42ec-9501-1AE6DAAD7A81","mode":0,"speed":1.0,"type":"speed"},{"curve_speed":null,"id":"1CE5339B-97F5-42ec-9501-1AE6DAAD7A81","mode":0,"speed":1.0,"type":"speed"},{"curve_speed":null,"id":"1CE5339B-97F5-42ec-9501-1AE6DAAD7A81","mode":0,"speed":1.0,"type":"speed"},{"curve_speed":null,"id":"1CE5339B-97F5-42ec-9501-1AE6DAAD7A81","mode":0,"speed":1.0,"type":"speed"},{"curve_speed":null,"id":"1CE5339B-97F5-42ec-9501-1AE6DAAD7A81","mode":0,"speed":1.0,"type":"speed"},{"curve_speed":null,"id":"1CE5339B-97F5-42ec-9501-1AE6DAAD7A81","mode":0,"speed":1.0,"type":"speed"},{"curve_speed":null,"id":"1CE5339B-97F5-42ec-9501-1AE6DAAD7A81","mode":0,"speed":1.0,"type":"speed"},{"curve_speed":null,"id":"1CE5339B-97F5-42ec-9501-1AE6DAAD7A81","mode":0,"speed":1.0,"type":"speed"}],"stickers":[],"tail_leaders":[],"text_templates":[],"texts":[{"add_type":0,"alignment":1,"background_alpha":1.0,"background_color":"#000000","background_height":0.14,"background_horizontal_offset":0.0,"background_round_radius":0.0,"background_style":0,"background_vertical_offset":0.0,"background_width":0.14,"base_content":"","bold_width":0.0,"border_alpha":1.0,"border_color":"#000000","border_width":0.06,"caption_template_info":{"category_id":"","category_name":"","effect_id":"","is_new":false,"path":"","request_id":"","resource_id":"","resource_name":"","source_platform":0},"check_flag":15,"combo_info":{"text_templates":[]},"content":"{\"text\": \"Ever\", \"styles\": [{\"strokes\": [{\"content\": {\"solid\": {\"color\": [0, 0, 0]}}, \"width\": 0.07999999821186066}], \"size\": 15, \"useLetterColor\": true, \"fill\": {\"content\": {\"solid\": {\"color\": [1, 0.87058824300766, 0]}}}, \"range\": [0, 4]}]}","fixed_height":-1.0,"fixed_width":-1.0,"font_category_id":"","font_category_name":"","font_id":"","font_name":"","font_path":"","font_resource_id":"","font_size":15.0,"font_source_platform":0,"font_team_id":"","font_title":"none","font_url":"","fonts":[],"force_apply_line_max_width":false,"global_alpha":1.0,"group_id":"","has_shadow":false,"id":"29B5D28C-EF5D-4963-A881-A12071AE12FB","initial_scale":0.0,"inner_padding":-1.0,"is_rich_text":false,"italic_degree":0,"ktv_color":"","language":"","layer_weight":0,"letter_spacing":0.0,"line_feed":1,"line_max_width":0.82,"line_spacing":0.2,"multi_language_current":"none","name":"","original_size":[],"preset_category":"","preset_category_id":"","preset_has_set_alignment":false,"preset_id":"","preset_index":0,"preset_name":"","recognize_task_id":"","recognize_type":0,"relevance_segment":[],"shadow_alpha":0.8,"shadow_angle":0.0,"shadow_color":"","shadow_distance":0.0,"shadow_point":{"x":0.0,"y":0.0},"shadow_smoothing":0.0,"shape_clip_x":false,"shape_clip_y":false,"source_from":"","style_name":"","sub_type":0,"subtitle_keywords":null,"subtitle_template_original_fontsize":0.0,"text_alpha":1.0,"text_color":"#ffde00","text_curve":null,"text_preset_resource_id":"","text_size":30,"text_to_audio_ids":[],"tts_auto_update":false,"type":"text","typesetting":0,"underline":false,"underline_offset":0.22,"underline_width":0.05,"use_effect_default_color":true,"words":{"end_time":[],"start_time":[],"text":[]}},{"add_type":0,"alignment":1,"background_alpha":1.0,"background_color":"#000000","background_height":0.14,"background_horizontal_offset":0.0,"background_round_radius":0.0,"background_style":0,"background_vertical_offset":0.0,"background_width":0.14,"base_content":"","bold_width":0.0,"border_alpha":1.0,"border_color":"#000000","border_width":0.06,"caption_template_info":{"category_id":"","category_name":"","effect_id":"","is_new":false,"path":"","request_id":"","resource_id":"","resource_name":"","source_platform":0},"check_flag":15,"combo_info":{"text_templates":[]},"content":"{\"text\": \"wondered\", \"styles\": [{\"strokes\": [{\"content\": {\"solid\": {\"color\": [0, 0, 0]}}, \"width\": 0.07999999821186066}], \"size\": 15, \"useLetterColor\": true, \"fill\": {\"content\": {\"solid\": {\"color\": [1, 0.87058824300766, 0]}}}, \"range\": [0, 8]}]}","fixed_height":-1.0,"fixed_width":-1.0,"font_category_id":"","font_category_name":"","font_id":"","font_name":"","font_path":"","font_resource_id":"","font_size":15.0,"font_source_platform":0,"font_team_id":"","font_title":"none","font_url":"","fonts":[],"force_apply_line_max_width":false,"global_alpha":1.0,"group_id":"","has_shadow":false,"id":"E3DDF280-12DF-4B45-AD2D-B450C32ADBB8","initial_scale":0.0,"inner_padding":-1.0,"is_rich_text":false,"italic_degree":0,"ktv_color":"","language":"","layer_weight":0,"letter_spacing":0.0,"line_feed":1,"line_max_width":0.82,"line_spacing":0.2,"multi_language_current":"none","name":"","original_size":[],"preset_category":"","preset_category_id":"","preset_has_set_alignment":false,"preset_id":"","preset_index":0,"preset_name":"","recognize_task_id":"","recognize_type":0,"relevance_segment":[],"shadow_alpha":0.8,"shadow_angle":0.0,"shadow_color":"","shadow_distance":0.0,"shadow_point":{"x":0.0,"y":0.0},"shadow_smoothing":0.0,"shape_clip_x":false,"shape_clip_y":false,"source_from":"","style_name":"","sub_type":0,"subtitle_keywords":null,"subtitle_template_original_fontsize":0.0,"text_alpha":1.0,"text_color":"#ffde00","text_curve":null,"text_preset_resource_id":"","text_size":30,"text_to_audio_ids":[],"tts_auto_update":false,"type":"text","typesetting":0,"underline":false,"underline_offset":0.22,"underline_width":0.05,"use_effect_default_color":true,"words":{"end_time":[],"start_time":[],"text":[]}},{"add_type":0,"alignment":1,"background_alpha":1.0,"background_color":"#000000","background_height":0.14,"background_horizontal_offset":0.0,"background_round_radius":0.0,"background_style":0,"background_vertical_offset":0.0,"background_width":0.14,"base_content":"","bold_width":0.0,"border_alpha":1.0,"border_color":"#000000","border_width":0.06,"caption_template_info":{"category_id":"","category_name":"","effect_id":"","is_new":false,"path":"","request_id":"","resource_id":"","resource_name":"","source_platform":0},"check_flag":15,"combo_info":{"text_templates":[]},"content":"{\"text\": \"how\", \"styles\": [{\"strokes\": [{\"content\": {\"solid\": {\"color\": [0, 0, 0]}}, \"width\": 0.07999999821186066}], \"size\": 15, \"useLetterColor\": true, \"fill\": {\"content\": {\"solid\": {\"color\": [1, 0.87058824300766, 0]}}}, \"range\": [0, 3]}]}","fixed_height":-1.0,"fixed_width":-1.0,"font_category_id":"","font_category_name":"","font_id":"","font_name":"","font_path":"","font_resource_id":"","font_size":15.0,"font_source_platform":0,"font_team_id":"","font_title":"none","font_url":"","fonts":[],"force_apply_line_max_width":false,"global_alpha":1.0,"group_id":"","has_shadow":false,"id":"F76D9FBE-ABFF-4571-84AA-C9A463A38258","initial_scale":0.0,"inner_padding":-1.0,"is_rich_text":false,"italic_degree":0,"ktv_color":"","language":"","layer_weight":0,"letter_spacing":0.0,"line_feed":1,"line_max_width":0.82,"line_spacing":0.2,"multi_language_current":"none","name":"","original_size":[],"preset_category":"","preset_category_id":"","preset_has_set_alignment":false,"preset_id":"","preset_index":0,"preset_name":"","recognize_task_id":"","recognize_type":0,"relevance_segment":[],"shadow_alpha":0.8,"shadow_angle":0.0,"shadow_color":"","shadow_distance":0.0,"shadow_point":{"x":0.0,"y":0.0},"shadow_smoothing":0.0,"shape_clip_x":false,"shape_clip_y":false,"source_from":"","style_name":"","sub_type":0,"subtitle_keywords":null,"subtitle_template_original_fontsize":0.0,"text_alpha":1.0,"text_color":"#ffde00","text_curve":null,"text_preset_resource_id":"","text_size":30,"text_to_audio_ids":[],"tts_auto_update":false,"type":"text","typesetting":0,"underline":false,"underline_offset":0.22,"underline_width":0.05,"use_effect_default_color":true,"words":{"end_time":[],"start_time":[],"text":[]}},{"add_type":0,"alignment":1,"background_alpha":1.0,"background_color":"#000000","background_height":0.14,"background_horizontal_offset":0.0,"background_round_radius":0.0,"background_style":0,"background_vertical_offset":0.0,"background_width":0.14,"base_content":"","bold_width":0.0,"border_alpha":1.0,"border_color":"#000000","border_width":0.06,"caption_template_info":{"category_id":"","category_name":"","effect_id":"","is_new":false,"path":"","request_id":"","resource_id":"","resource_name":"","source_platform":0},"check_flag":15,"combo_info":{"text_templates":[]},"content":"{\"text\": \"bizarre\", \"styles\": [{\"strokes\": [{\"content\": {\"solid\": {\"color\": [0, 0, 0]}}, \"width\": 0.07999999821186066}], \"size\": 15, \"useLetterColor\": true, \"fill\": {\"content\": {\"solid\": {\"color\": [1, 0.87058824300766, 0]}}}, \"range\": [0, 7]}]}","fixed_height":-1.0,"fixed_width":-1.0,"font_category_id":"","font_category_name":"","font_id":"","font_name":"","font_path":"","font_resource_id":"","font_size":15.0,"font_source_platform":0,"font_team_id":"","font_title":"none","font_url":"","fonts":[],"force_apply_line_max_width":false,"global_alpha":1.0,"group_id":"","has_shadow":false,"id":"08FF802C-DE6E-44FD-A246-B5AB73787A67","initial_scale":0.0,"inner_padding":-1.0,"is_rich_text":false,"italic_degree":0,"ktv_color":"","language":"","layer_weight":0,"letter_spacing":0.0,"line_feed":1,"line_max_width":0.82,"line_spacing":0.2,"multi_language_current":"none","name":"","original_size":[],"preset_category":"","preset_category_id":"","preset_has_set_alignment":false,"preset_id":"","preset_index":0,"preset_name":"","recognize_task_id":"","recognize_type":0,"relevance_segment":[],"shadow_alpha":0.8,"shadow_angle":0.0,"shadow_color":"","shadow_distance":0.0,"shadow_point":{"x":0.0,"y":0.0},"shadow_smoothing":0.0,"shape_clip_x":false,"shape_clip_y":false,"source_from":"","style_name":"","sub_type":0,"subtitle_keywords":null,"subtitle_template_original_fontsize":0.0,"text_alpha":1.0,"text_color":"#ffde00","text_curve":null,"text_preset_resource_id":"","text_size":30,"text_to_audio_ids":[],"tts_auto_update":false,"type":"text","typesetting":0,"underline":false,"underline_offset":0.22,"underline_width":0.05,"use_effect_default_color":true,"words":{"end_time":[],"start_time":[],"text":[]}},{"add_type":0,"alignment":1,"background_alpha":1.0,"background_color":"#000000","background_height":0.14,"background_horizontal_offset":0.0,"background_round_radius":0.0,"background_style":0,"background_vertical_offset":0.0,"background_width":0.14,"base_content":"","bold_width":0.0,"border_alpha":1.0,"border_color":"#000000","border_width":0.06,"caption_template_info":{"category_id":"","category_name":"","effect_id":"","is_new":false,"path":"","request_id":"","resource_id":"","resource_name":"","source_platform":0},"check_flag":15,"combo_info":{"text_templates":[]},"content":"{\"text\": \"Spongebobs\", \"styles\": [{\"strokes\": [{\"content\": {\"solid\": {\"color\": [0, 0, 0]}}, \"width\": 0.07999999821186066}], \"size\": 15, \"useLetterColor\": true, \"fill\": {\"content\": {\"solid\": {\"color\": [1, 0.87058824300766, 0]}}}, \"range\": [0, 10]}]}","fixed_height":-1.0,"fixed_width":-1.0,"font_category_id":"","font_category_name":"","font_id":"","font_name":"","font_path":"","font_resource_id":"","font_size":15.0,"font_source_platform":0,"font_team_id":"","font_title":"none","font_url":"","fonts":[],"force_apply_line_max_width":false,"global_alpha":1.0,"group_id":"","has_shadow":false,"id":"1CBFB786-1E00-4B5A-8131-D081D632A826","initial_scale":0.0,"inner_padding":-1.0,"is_rich_text":false,"italic_degree":0,"ktv_color":"","language":"","layer_weight":0,"letter_spacing":0.0,"line_feed":1,"line_max_width":0.82,"line_spacing":0.2,"multi_language_current":"none","name":"","original_size":[],"preset_category":"","preset_category_id":"","preset_has_set_alignment":false,"preset_id":"","preset_index":0,"preset_name":"","recognize_task_id":"","recognize_type":0,"relevance_segment":[],"shadow_alpha":0.8,"shadow_angle":0.0,"shadow_color":"","shadow_distance":0.0,"shadow_point":{"x":0.0,"y":0.0},"shadow_smoothing":0.0,"shape_clip_x":false,"shape_clip_y":false,"source_from":"","style_name":"","sub_type":0,"subtitle_keywords":null,"subtitle_template_original_fontsize":0.0,"text_alpha":1.0,"text_color":"#ffde00","text_curve":null,"text_preset_resource_id":"","text_size":30,"text_to_audio_ids":[],"tts_auto_update":false,"type":"text","typesetting":0,"underline":false,"underline_offset":0.22,"underline_width":0.05,"use_effect_default_color":true,"words":{"end_time":[],"start_time":[],"text":[]}}],"time_marks":[],"transitions":[],"video_effects":[],"video_trackings":[],"videos":[{"aigc_type":"none","audio_fade":null,"cartoon_path":"","category_id":"","category_name":"local","check_flag":63487,"crop":{"lower_left_x":0.13364055299539157,"lower_left_y":0.8648233486943162,"lower_right_x":0.8179723502304148,"lower_right_y":0.8648233486943162,"upper_left_x":0.13364055299539157,"upper_left_y":0.0,"upper_right_x":0.8179723502304148,"upper_right_y":0.0},"crop_ratio":"free","crop_scale":1.0,"duration":44733333,"extra_type_option":0,"formula_id":"","freeze":null,"has_audio":true,"height":1920,"id":"1D5C7CC1-A093-4079-B7A9-E2806BA490ED","intensifies_audio_path":"","intensifies_path":"","is_ai_generate_content":false,"is_copyright":false,"is_text_edit_overdub":false,"is_unified_beauty_mode":false,"local_id":"","local_material_id":"7810766b-9e7b-444b-bd73-df90c27a19d6","material_id":"","material_name":"BV1684y1r7Qw.mp4","material_url":"","matting":{"flag":0,"has_use_quick_brush":false,"has_use_quick_eraser":false,"interactiveTime":[],"path":"","strokes":[]},"media_path":"","object_locked":null,"origin_material_id":"","path":"##_draftpath_placeholder_0E685133-18CE-45ED-8CB8-2904A212EC80_##/materials/BV1684y1r7Qw.mp4","picture_from":"none","picture_set_category_id":"","picture_set_category_name":"","request_id":"","reverse_intensifies_path":"","reverse_path":"","smart_motion":null,"source":0,"source_platform":0,"stable":{"matrix_path":"","stable_level":0,"time_range":{"duration":0,"start":0}},"team_id":"","type":"video","video_algorithm":{"algorithms":[],"complement_frame_config":null,"deflicker":null,"gameplay_configs":[],"motion_blur_config":null,"noise_reduction":null,"path":"","quality_enhance":null,"time_range":null},"width":1080},{"aigc_type":"none","audio_fade":null,"cartoon_path":"","category_id":"","category_name":"local","check_flag":63487,"crop":{"lower_left_x":0.13364055299539157,"lower_left_y":0.8648233486943162,"lower_right_x":0.8179723502304148,"lower_right_y":0.8648233486943162,"upper_left_x":0.13364055299539157,"upper_left_y":0.0,"upper_right_x":0.8179723502304148,"upper_right_y":0.0},"crop_ratio":"free","crop_scale":1.0,"duration":44733333,"extra_type_option":0,"formula_id":"","freeze":null,"has_audio":true,"height":1920,"id":"6DB3E8BD-E4A4-4CB7-B077-81FD7578A609","intensifies_audio_path":"","intensifies_path":"","is_ai_generate_content":false,"is_copyright":false,"is_text_edit_overdub":false,"is_unified_beauty_mode":false,"local_id":"","local_material_id":"1ac823ad-0995-4316-b619-2a19014b5b7d","material_id":"","material_name":"BV1684y1r7Qw.mp4","material_url":"","matting":{"flag":0,"has_use_quick_brush":false,"has_use_quick_eraser":false,"interactiveTime":[],"path":"","strokes":[]},"media_path":"","object_locked":null,"origin_material_id":"","path":"##_draftpath_placeholder_0E685133-18CE-45ED-8CB8-2904A212EC80_##/materials/BV1684y1r7Qw.mp4","picture_from":"none","picture_set_category_id":"","picture_set_category_name":"","request_id":"","reverse_intensifies_path":"","reverse_path":"","smart_motion":null,"source":0,"source_platform":0,"stable":{"matrix_path":"","stable_level":0,"time_range":{"duration":0,"start":0}},"team_id":"","type":"video","video_algorithm":{"algorithms":[],"complement_frame_config":null,"deflicker":null,"gameplay_configs":[],"motion_blur_config":null,"noise_reduction":null,"path":"","quality_enhance":null,"time_range":null},"width":1080},{"aigc_type":"none","audio_fade":null,"cartoon_path":"","category_id":"","category_name":"local","check_flag":63487,"crop":{"lower_left_x":0.13364055299539157,"lower_left_y":0.8648233486943162,"lower_right_x":0.8179723502304148,"lower_right_y":0.8648233486943162,"upper_left_x":0.13364055299539157,"upper_left_y":0.0,"upper_right_x":0.8179723502304148,"upper_right_y":0.0},"crop_ratio":"free","crop_scale":1.0,"duration":44733333,"extra_type_option":0,"formula_id":"","freeze":null,"has_audio":true,"height":1920,"id":"BEB8E674-EFF9-4247-9E22-3D806D9F0D5C","intensifies_audio_path":"","intensifies_path":"","is_ai_generate_content":false,"is_copyright":false,"is_text_edit_overdub":false,"is_unified_beauty_mode":false,"local_id":"","local_material_id":"6115e7aa-67dc-423a-aded-d1a0d613e923","material_id":"","material_name":"BV1684y1r7Qw.mp4","material_url":"","matting":{"flag":0,"has_use_quick_brush":false,"has_use_quick_eraser":false,"interactiveTime":[],"path":"","strokes":[]},"media_path":"","object_locked":null,"origin_material_id":"","path":"##_draftpath_placeholder_0E685133-18CE-45ED-8CB8-2904A212EC80_##/materials/BV1684y1r7Qw.mp4","picture_from":"none","picture_set_category_id":"","picture_set_category_name":"","request_id":"","reverse_intensifies_path":"","reverse_path":"","smart_motion":null,"source":0,"source_platform":0,"stable":{"matrix_path":"","stable_level":0,"time_range":{"duration":0,"start":0}},"team_id":"","type":"video","video_algorithm":{"algorithms":[],"complement_frame_config":null,"deflicker":null,"gameplay_configs":[],"motion_blur_config":null,"noise_reduction":null,"path":"","quality_enhance":null,"time_range":null},"width":1080},{"aigc_type":"none","audio_fade":null,"cartoon_path":"","category_id":"","category_name":"local","check_flag":63487,"crop":{"lower_left_x":0.13364055299539157,"lower_left_y":0.8648233486943162,"lower_right_x":0.8179723502304148,"lower_right_y":0.8648233486943162,"upper_left_x":0.13364055299539157,"upper_left_y":0.0,"upper_right_x":0.8179723502304148,"upper_right_y":0.0},"crop_ratio":"free","crop_scale":1.0,"duration":44733333,"extra_type_option":0,"formula_id":"","freeze":null,"has_audio":true,"height":1920,"id":"BA5190A8-D6AA-4BEE-9B3A-B0AC409425FE","intensifies_audio_path":"","intensifies_path":"","is_ai_generate_content":false,"is_copyright":false,"is_text_edit_overdub":false,"is_unified_beauty_mode":false,"local_id":"","local_material_id":"ce87dd71-ad97-4875-80b2-425527190c26","material_id":"","material_name":"BV1684y1r7Qw.mp4","material_url":"","matting":{"flag":0,"has_use_quick_brush":false,"has_use_quick_eraser":false,"interactiveTime":[],"path":"","strokes":[]},"media_path":"","object_locked":null,"origin_material_id":"","path":"##_draftpath_placeholder_0E685133-18CE-45ED-8CB8-2904A212EC80_##/materials/BV1684y1r7Qw.mp4","picture_from":"none","picture_set_category_id":"","picture_set_category_name":"","request_id":"","reverse_intensifies_path":"","reverse_path":"","smart_motion":null,"source":0,"source_platform":0,"stable":{"matrix_path":"","stable_level":0,"time_range":{"duration":0,"start":0}},"team_id":"","type":"video","video_algorithm":{"algorithms":[],"complement_frame_config":null,"deflicker":null,"gameplay_configs":[],"motion_blur_config":null,"noise_reduction":null,"path":"","quality_enhance":null,"time_range":null},"width":1080},{"aigc_type":"none","audio_fade":null,"cartoon_path":"","category_id":"","category_name":"local","check_flag":63487,"crop":{"lower_left_x":0.13364055299539157,"lower_left_y":0.8648233486943162,"lower_right_x":0.8179723502304148,"lower_right_y":0.8648233486943162,"upper_left_x":0.13364055299539157,"upper_left_y":0.0,"upper_right_x":0.8179723502304148,"upper_right_y":0.0},"crop_ratio":"free","crop_scale":1.0,"duration":44733333,"extra_type_option":0,"formula_id":"","freeze":null,"has_audio":true,"height":1920,"id":"D62123B7-241B-4D1F-AC39-684750680B77","intensifies_audio_path":"","intensifies_path":"","is_ai_generate_content":false,"is_copyright":false,"is_text_edit_overdub":false,"is_unified_beauty_mode":false,"local_id":"","local_material_id":"c0908947-c48f-49c9-99ad-57f82a3182aa","material_id":"","material_name":"BV1684y1r7Qw.mp4","material_url":"","matting":{"flag":0,"has_use_quick_brush":false,"has_use_quick_eraser":false,"interactiveTime":[],"path":"","strokes":[]},"media_path":"","object_locked":null,"origin_material_id":"","path":"##_draftpath_placeholder_0E685133-18CE-45ED-8CB8-2904A212EC80_##/materials/BV1684y1r7Qw.mp4","picture_from":"none","picture_set_category_id":"","picture_set_category_name":"","request_id":"","reverse_intensifies_path":"","reverse_path":"","smart_motion":null,"source":0,"source_platform":0,"stable":{"matrix_path":"","stable_level":0,"time_range":{"duration":0,"start":0}},"team_id":"","type":"video","video_algorithm":{"algorithms":[],"complement_frame_config":null,"deflicker":null,"gameplay_configs":[],"motion_blur_config":null,"noise_reduction":null,"path":"","quality_enhance":null,"time_range":null},"width":1080},{"aigc_type":"none","audio_fade":null,"cartoon_path":"","category_id":"","category_name":"local","check_flag":63487,"crop":{"lower_left_x":0.13364055299539157,"lower_left_y":0.8648233486943162,"lower_right_x":0.8179723502304148,"lower_right_y":0.8648233486943162,"upper_left_x":0.13364055299539157,"upper_left_y":0.0,"upper_right_x":0.8179723502304148,"upper_right_y":0.0},"crop_ratio":"free","crop_scale":1.0,"duration":44733333,"extra_type_option":0,"formula_id":"","freeze":null,"has_audio":true,"height":1920,"id":"93D1BE65-0843-4B58-8957-B2379F3BE485","intensifies_audio_path":"","intensifies_path":"","is_ai_generate_content":false,"is_copyright":false,"is_text_edit_overdub":false,"is_unified_beauty_mode":false,"local_id":"","local_material_id":"482a42e2-e888-406e-b20b-fb37cc33c2c3","material_id":"","material_name":"BV1684y1r7Qw.mp4","material_url":"","matting":{"flag":0,"has_use_quick_brush":false,"has_use_quick_eraser":false,"interactiveTime":[],"path":"","strokes":[]},"media_path":"","object_locked":null,"origin_material_id":"","path":"##_draftpath_placeholder_0E685133-18CE-45ED-8CB8-2904A212EC80_##/materials/BV1684y1r7Qw.mp4","picture_from":"none","picture_set_category_id":"","picture_set_category_name":"","request_id":"","reverse_intensifies_path":"","reverse_path":"","smart_motion":null,"source":0,"source_platform":0,"stable":{"matrix_path":"","stable_level":0,"time_range":{"duration":0,"start":0}},"team_id":"","type":"video","video_algorithm":{"algorithms":[],"complement_frame_config":null,"deflicker":null,"gameplay_configs":[],"motion_blur_config":null,"noise_reduction":null,"path":"","quality_enhance":null,"time_range":null},"width":1080},{"aigc_type":"none","audio_fade":null,"cartoon_path":"","category_id":"","category_name":"local","check_flag":63487,"crop":{"lower_left_x":0.13364055299539157,"lower_left_y":0.8648233486943162,"lower_right_x":0.8179723502304148,"lower_right_y":0.8648233486943162,"upper_left_x":0.13364055299539157,"upper_left_y":0.0,"upper_right_x":0.8179723502304148,"upper_right_y":0.0},"crop_ratio":"free","crop_scale":1.0,"duration":44733333,"extra_type_option":0,"formula_id":"","freeze":null,"has_audio":true,"height":1920,"id":"1252C518-50BE-482A-A5C1-54BF3E76F28A","intensifies_audio_path":"","intensifies_path":"","is_ai_generate_content":false,"is_copyright":false,"is_text_edit_overdub":false,"is_unified_beauty_mode":false,"local_id":"","local_material_id":"0bbf4b7b-b74f-45ad-a449-84ccc844f19f","material_id":"","material_name":"BV1684y1r7Qw.mp4","material_url":"","matting":{"flag":0,"has_use_quick_brush":false,"has_use_quick_eraser":false,"interactiveTime":[],"path":"","strokes":[]},"media_path":"","object_locked":null,"origin_material_id":"","path":"##_draftpath_placeholder_0E685133-18CE-45ED-8CB8-2904A212EC80_##/materials/BV1684y1r7Qw.mp4","picture_from":"none","picture_set_category_id":"","picture_set_category_name":"","request_id":"","reverse_intensifies_path":"","reverse_path":"","smart_motion":null,"source":0,"source_platform":0,"stable":{"matrix_path":"","stable_level":0,"time_range":{"duration":0,"start":0}},"team_id":"","type":"video","video_algorithm":{"algorithms":[],"complement_frame_config":null,"deflicker":null,"gameplay_configs":[],"motion_blur_config":null,"noise_reduction":null,"path":"","quality_enhance":null,"time_range":null},"width":1080},{"aigc_type":"none","audio_fade":null,"cartoon_path":"","category_id":"","category_name":"local","check_flag":63487,"crop":{"lower_left_x":0.13364055299539157,"lower_left_y":0.8648233486943162,"lower_right_x":0.8179723502304148,"lower_right_y":0.8648233486943162,"upper_left_x":0.13364055299539157,"upper_left_y":0.0,"upper_right_x":0.8179723502304148,"upper_right_y":0.0},"crop_ratio":"free","crop_scale":1.0,"duration":44733333,"extra_type_option":0,"formula_id":"","freeze":null,"has_audio":true,"height":1920,"id":"9411B2CC-5853-4046-9E7F-10DF4A8E8C4F","intensifies_audio_path":"","intensifies_path":"","is_ai_generate_content":false,"is_copyright":false,"is_text_edit_overdub":false,"is_unified_beauty_mode":false,"local_id":"","local_material_id":"4c4b532f-d1d0-443b-9343-361308c8f12e","material_id":"","material_name":"BV1684y1r7Qw.mp4","material_url":"","matting":{"flag":0,"has_use_quick_brush":false,"has_use_quick_eraser":false,"interactiveTime":[],"path":"","strokes":[]},"media_path":"","object_locked":null,"origin_material_id":"","path":"##_draftpath_placeholder_0E685133-18CE-45ED-8CB8-2904A212EC80_##/materials/BV1684y1r7Qw.mp4","picture_from":"none","picture_set_category_id":"","picture_set_category_name":"","request_id":"","reverse_intensifies_path":"","reverse_path":"","smart_motion":null,"source":0,"source_platform":0,"stable":{"matrix_path":"","stable_level":0,"time_range":{"duration":0,"start":0}},"team_id":"","type":"video","video_algorithm":{"algorithms":[],"complement_frame_config":null,"deflicker":null,"gameplay_configs":[],"motion_blur_config":null,"noise_reduction":null,"path":"","quality_enhance":null,"time_range":null},"width":1080},{"aigc_type":"none","audio_fade":null,"cartoon_path":"","category_id":"","category_name":"local","check_flag":63487,"crop":{"lower_left_x":0.13364055299539157,"lower_left_y":0.8648233486943162,"lower_right_x":0.8179723502304148,"lower_right_y":0.8648233486943162,"upper_left_x":0.13364055299539157,"upper_left_y":0.0,"upper_right_x":0.8179723502304148,"upper_right_y":0.0},"crop_ratio":"free","crop_scale":1.0,"duration":44733333,"extra_type_option":0,"formula_id":"","freeze":null,"has_audio":true,"height":1920,"id":"BD514472-3C62-4F42-8D0F-D4685B30FC79","intensifies_audio_path":"","intensifies_path":"","is_ai_generate_content":false,"is_copyright":false,"is_text_edit_overdub":false,"is_unified_beauty_mode":false,"local_id":"","local_material_id":"72969dfb-a0f0-4c12-a554-7772705e25e8","material_id":"","material_name":"BV1684y1r7Qw.mp4","material_url":"","matting":{"flag":0,"has_use_quick_brush":false,"has_use_quick_eraser":false,"interactiveTime":[],"path":"","strokes":[]},"media_path":"","object_locked":null,"origin_material_id":"","path":"##_draftpath_placeholder_0E685133-18CE-45ED-8CB8-2904A212EC80_##/materials/BV1684y1r7Qw.mp4","picture_from":"none","picture_set_category_id":"","picture_set_category_name":"","request_id":"","reverse_intensifies_path":"","reverse_path":"","smart_motion":null,"source":0,"source_platform":0,"stable":{"matrix_path":"","stable_level":0,"time_range":{"duration":0,"start":0}},"team_id":"","type":"video","video_algorithm":{"algorithms":[],"complement_frame_config":null,"deflicker":null,"gameplay_configs":[],"motion_blur_config":null,"noise_reduction":null,"path":"","quality_enhance":null,"time_range":null},"width":1080},{"aigc_type":"none","audio_fade":null,"cartoon_path":"","category_id":"","category_name":"local","check_flag":63487,"crop":{"lower_left_x":0.13364055299539157,"lower_left_y":0.8648233486943162,"lower_right_x":0.8179723502304148,"lower_right_y":0.8648233486943162,"upper_left_x":0.13364055299539157,"upper_left_y":0.0,"upper_right_x":0.8179723502304148,"upper_right_y":0.0},"crop_ratio":"free","crop_scale":1.0,"duration":44733333,"extra_type_option":0,"formula_id":"","freeze":null,"has_audio":true,"height":1920,"id":"47CBA23E-30A1-4777-A524-2FD2D33CA3CA","intensifies_audio_path":"","intensifies_path":"","is_ai_generate_content":false,"is_copyright":false,"is_text_edit_overdub":false,"is_unified_beauty_mode":false,"local_id":"","local_material_id":"cab83471-5796-4b0d-95d5-34bec2229f1b","material_id":"","material_name":"BV1684y1r7Qw.mp4","material_url":"","matting":{"flag":0,"has_use_quick_brush":false,"has_use_quick_eraser":false,"interactiveTime":[],"path":"","strokes":[]},"media_path":"","object_locked":null,"origin_material_id":"","path":"##_draftpath_placeholder_0E685133-18CE-45ED-8CB8-2904A212EC80_##/materials/BV1684y1r7Qw.mp4","picture_from":"none","picture_set_category_id":"","picture_set_category_name":"","request_id":"","reverse_intensifies_path":"","reverse_path":"","smart_motion":null,"source":0,"source_platform":0,"stable":{"matrix_path":"","stable_level":0,"time_range":{"duration":0,"start":0}},"team_id":"","type":"video","video_algorithm":{"algorithms":[],"complement_frame_config":null,"deflicker":null,"gameplay_configs":[],"motion_blur_config":null,"noise_reduction":null,"path":"","quality_enhance":null,"time_range":null},"width":1080},{"aigc_type":"none","audio_fade":null,"cartoon_path":"","category_id":"","category_name":"local","check_flag":63487,"crop":{"lower_left_x":0.13364055299539157,"lower_left_y":0.8648233486943162,"lower_right_x":0.8179723502304148,"lower_right_y":0.8648233486943162,"upper_left_x":0.13364055299539157,"upper_left_y":0.0,"upper_right_x":0.8179723502304148,"upper_right_y":0.0},"crop_ratio":"free","crop_scale":1.0,"duration":44733333,"extra_type_option":0,"formula_id":"","freeze":null,"has_audio":true,"height":1920,"id":"7785A408-D075-4352-B9F6-0A376EB3E87F","intensifies_audio_path":"","intensifies_path":"","is_ai_generate_content":false,"is_copyright":false,"is_text_edit_overdub":false,"is_unified_beauty_mode":false,"local_id":"","local_material_id":"bcdaeac9-5d4f-45a0-8e10-95d91f65bbb1","material_id":"","material_name":"BV1684y1r7Qw.mp4","material_url":"","matting":{"flag":0,"has_use_quick_brush":false,"has_use_quick_eraser":false,"interactiveTime":[],"path":"","strokes":[]},"media_path":"","object_locked":null,"origin_material_id":"","path":"##_draftpath_placeholder_0E685133-18CE-45ED-8CB8-2904A212EC80_##/materials/BV1684y1r7Qw.mp4","picture_from":"none","picture_set_category_id":"","picture_set_category_name":"","request_id":"","reverse_intensifies_path":"","reverse_path":"","smart_motion":null,"source":0,"source_platform":0,"stable":{"matrix_path":"","stable_level":0,"time_range":{"duration":0,"start":0}},"team_id":"","type":"video","video_algorithm":{"algorithms":[],"complement_frame_config":null,"deflicker":null,"gameplay_configs":[],"motion_blur_config":null,"noise_reduction":null,"path":"","quality_enhance":null,"time_range":null},"width":1080},{"aigc_type":"none","audio_fade":null,"cartoon_path":"","category_id":"","category_name":"local","check_flag":63487,"crop":{"lower_left_x":0.13364055299539157,"lower_left_y":0.8648233486943162,"lower_right_x":0.8179723502304148,"lower_right_y":0.8648233486943162,"upper_left_x":0.13364055299539157,"upper_left_y":0.0,"upper_right_x":0.8179723502304148,"upper_right_y":0.0},"crop_ratio":"free","crop_scale":1.0,"duration":407933000,"extra_type_option":0,"formula_id":"","freeze":null,"has_audio":true,"height":1920,"id":"B240D271-7A8F-4C92-94EE-A1CBBD901498","intensifies_audio_path":"","intensifies_path":"","is_ai_generate_content":false,"is_copyright":false,"is_text_edit_overdub":false,"is_unified_beauty_mode":false,"local_id":"","local_material_id":"796a699c-4d32-4dfa-b049-95e2bd5ff6c0","material_id":"","material_name":"BV1684y1r7Qw.mp4","material_url":"","matting":{"flag":0,"has_use_quick_brush":false,"has_use_quick_eraser":false,"interactiveTime":[],"path":"","strokes":[]},"media_path":"","object_locked":null,"origin_material_id":"","path":"##_draftpath_placeholder_0E685133-18CE-45ED-8CB8-2904A212EC80_##/materials/BV1684y1r7Qw.mp4","picture_from":"none","picture_set_category_id":"","picture_set_category_name":"","request_id":"","reverse_intensifies_path":"","reverse_path":"","smart_motion":null,"source":0,"source_platform":0,"stable":{"matrix_path":"","stable_level":0,"time_range":{"duration":0,"start":0}},"team_id":"","type":"video","video_algorithm":{"algorithms":[],"complement_frame_config":null,"deflicker":null,"gameplay_configs":[],"motion_blur_config":null,"noise_reduction":null,"path":"","quality_enhance":null,"time_range":null},"width":1080},{"aigc_type":"none","audio_fade":null,"cartoon_path":"","category_id":"","category_name":"local","check_flag":63487,"crop":{"lower_left_x":0.13364055299539157,"lower_left_y":0.8648233486943162,"lower_right_x":0.8179723502304148,"lower_right_y":0.8648233486943162,"upper_left_x":0.13364055299539157,"upper_left_y":0.0,"upper_right_x":0.8179723502304148,"upper_right_y":0.0},"crop_ratio":"free","crop_scale":1.0,"duration":407933000,"extra_type_option":0,"formula_id":"","freeze":null,"has_audio":true,"height":1920,"id":"045316CC-707F-4D1C-84FD-E3600F6F2D8E","intensifies_audio_path":"","intensifies_path":"","is_ai_generate_content":false,"is_copyright":false,"is_text_edit_overdub":false,"is_unified_beauty_mode":false,"local_id":"","local_material_id":"0a61f8d4-235a-4e52-a2c6-6167ef1d0a37","material_id":"","material_name":"BV1684y1r7Qw.mp4","material_url":"","matting":{"flag":0,"has_use_quick_brush":false,"has_use_quick_eraser":false,"interactiveTime":[],"path":"","strokes":[]},"media_path":"","object_locked":null,"origin_material_id":"","path":"##_draftpath_placeholder_0E685133-18CE-45ED-8CB8-2904A212EC80_##/materials/BV1684y1r7Qw.mp4","picture_from":"none","picture_set_category_id":"","picture_set_category_name":"","request_id":"","reverse_intensifies_path":"","reverse_path":"","smart_motion":null,"source":0,"source_platform":0,"stable":{"matrix_path":"","stable_level":0,"time_range":{"duration":0,"start":0}},"team_id":"","type":"video","video_algorithm":{"algorithms":[],"complement_frame_config":null,"deflicker":null,"gameplay_configs":[],"motion_blur_config":null,"noise_reduction":null,"path":"","quality_enhance":null,"time_range":null},"width":1080},{"aigc_type":"none","audio_fade":null,"cartoon_path":"","category_id":"","category_name":"local","check_flag":63487,"crop":{"lower_left_x":0.13364055299539157,"lower_left_y":0.8648233486943162,"lower_right_x":0.8179723502304148,"lower_right_y":0.8648233486943162,"upper_left_x":0.13364055299539157,"upper_left_y":0.0,"upper_right_x":0.8179723502304148,"upper_right_y":0.0},"crop_ratio":"free","crop_scale":1.0,"duration":407933000,"extra_type_option":0,"formula_id":"","freeze":null,"has_audio":true,"height":1920,"id":"25C8A55E-8D73-4B10-A7BC-D50D2292BCBE","intensifies_audio_path":"","intensifies_path":"","is_ai_generate_content":false,"is_copyright":false,"is_text_edit_overdub":false,"is_unified_beauty_mode":false,"local_id":"","local_material_id":"26342ba0-8e2a-471b-8b27-646e14ce0d03","material_id":"","material_name":"BV1684y1r7Qw.mp4","material_url":"","matting":{"flag":0,"has_use_quick_brush":false,"has_use_quick_eraser":false,"interactiveTime":[],"path":"","strokes":[]},"media_path":"","object_locked":null,"origin_material_id":"","path":"##_draftpath_placeholder_0E685133-18CE-45ED-8CB8-2904A212EC80_##/materials/BV1684y1r7Qw.mp4","picture_from":"none","picture_set_category_id":"","picture_set_category_name":"","request_id":"","reverse_intensifies_path":"","reverse_path":"","smart_motion":null,"source":0,"source_platform":0,"stable":{"matrix_path":"","stable_level":0,"time_range":{"duration":0,"start":0}},"team_id":"","type":"video","video_algorithm":{"algorithms":[],"complement_frame_config":null,"deflicker":null,"gameplay_configs":[],"motion_blur_config":null,"noise_reduction":null,"path":"","quality_enhance":null,"time_range":null},"width":1080},{"aigc_type":"none","audio_fade":null,"cartoon_path":"","category_id":"","category_name":"local","check_flag":63487,"crop":{"lower_left_x":0.13364055299539157,"lower_left_y":0.8648233486943162,"lower_right_x":0.8179723502304148,"lower_right_y":0.8648233486943162,"upper_left_x":0.13364055299539157,"upper_left_y":0.0,"upper_right_x":0.8179723502304148,"upper_right_y":0.0},"crop_ratio":"free","crop_scale":1.0,"duration":407933000,"extra_type_option":0,"formula_id":"","freeze":null,"has_audio":true,"height":1920,"id":"2AC16FEF-E94B-4016-A8AC-5AA2931BAF70","intensifies_audio_path":"","intensifies_path":"","is_ai_generate_content":false,"is_copyright":false,"is_text_edit_overdub":false,"is_unified_beauty_mode":false,"local_id":"","local_material_id":"86e6dad9-350f-4209-8a53-8a5fd07b8728","material_id":"","material_name":"BV1684y1r7Qw.mp4","material_url":"","matting":{"flag":0,"has_use_quick_brush":false,"has_use_quick_eraser":false,"interactiveTime":[],"path":"","strokes":[]},"media_path":"","object_locked":null,"origin_material_id":"","path":"##_draftpath_placeholder_0E685133-18CE-45ED-8CB8-2904A212EC80_##/materials/BV1684y1r7Qw.mp4","picture_from":"none","picture_set_category_id":"","picture_set_category_name":"","request_id":"","reverse_intensifies_path":"","reverse_path":"","smart_motion":null,"source":0,"source_platform":0,"stable":{"matrix_path":"","stable_level":0,"time_range":{"duration":0,"start":0}},"team_id":"","type":"video","video_algorithm":{"algorithms":[],"complement_frame_config":null,"deflicker":null,"gameplay_configs":[],"motion_blur_config":null,"noise_reduction":null,"path":"","quality_enhance":null,"time_range":null},"width":1080},{"aigc_type":"none","audio_fade":null,"cartoon_path":"","category_id":"","category_name":"local","check_flag":63487,"crop":{"lower_left_x":0.13364055299539157,"lower_left_y":0.8648233486943162,"lower_right_x":0.8179723502304148,"lower_right_y":0.8648233486943162,"upper_left_x":0.13364055299539157,"upper_left_y":0.0,"upper_right_x":0.8179723502304148,"upper_right_y":0.0},"crop_ratio":"free","crop_scale":1.0,"duration":407933000,"extra_type_option":0,"formula_id":"","freeze":null,"has_audio":true,"height":1920,"id":"502A0530-683B-4B86-ADD2-3C6273AD5A39","intensifies_audio_path":"","intensifies_path":"","is_ai_generate_content":false,"is_copyright":false,"is_text_edit_overdub":false,"is_unified_beauty_mode":false,"local_id":"","local_material_id":"6055a7c9-8809-4592-a264-b68984373ff9","material_id":"","material_name":"BV1684y1r7Qw.mp4","material_url":"","matting":{"flag":0,"has_use_quick_brush":false,"has_use_quick_eraser":false,"interactiveTime":[],"path":"","strokes":[]},"media_path":"","object_locked":null,"origin_material_id":"","path":"##_draftpath_placeholder_0E685133-18CE-45ED-8CB8-2904A212EC80_##/materials/BV1684y1r7Qw.mp4","picture_from":"none","picture_set_category_id":"","picture_set_category_name":"","request_id":"","reverse_intensifies_path":"","reverse_path":"","smart_motion":null,"source":0,"source_platform":0,"stable":{"matrix_path":"","stable_level":0,"time_range":{"duration":0,"start":0}},"team_id":"","type":"video","video_algorithm":{"algorithms":[],"complement_frame_config":null,"deflicker":null,"gameplay_configs":[],"motion_blur_config":null,"noise_reduction":null,"path":"","quality_enhance":null,"time_range":null},"width":1080},{"aigc_type":"none","audio_fade":null,"cartoon_path":"","category_id":"","category_name":"local","check_flag":63487,"crop":{"lower_left_x":0.13364055299539157,"lower_left_y":0.8648233486943162,"lower_right_x":0.8179723502304148,"lower_right_y":0.8648233486943162,"upper_left_x":0.13364055299539157,"upper_left_y":0.0,"upper_right_x":0.8179723502304148,"upper_right_y":0.0},"crop_ratio":"free","crop_scale":1.0,"duration":407933000,"extra_type_option":0,"formula_id":"","freeze":null,"has_audio":true,"height":1920,"id":"021AE0AA-FB24-4BEA-8F05-3A3EEB9ABBCE","intensifies_audio_path":"","intensifies_path":"","is_ai_generate_content":false,"is_copyright":false,"is_text_edit_overdub":false,"is_unified_beauty_mode":false,"local_id":"","local_material_id":"6d3ad014-bc3e-4e01-bc1e-c3ffcce87bcd","material_id":"","material_name":"BV1684y1r7Qw.mp4","material_url":"","matting":{"flag":0,"has_use_quick_brush":false,"has_use_quick_eraser":false,"interactiveTime":[],"path":"","strokes":[]},"media_path":"","object_locked":null,"origin_material_id":"","path":"##_draftpath_placeholder_0E685133-18CE-45ED-8CB8-2904A212EC80_##/materials/BV1684y1r7Qw.mp4","picture_from":"none","picture_set_category_id":"","picture_set_category_name":"","request_id":"","reverse_intensifies_path":"","reverse_path":"","smart_motion":null,"source":0,"source_platform":0,"stable":{"matrix_path":"","stable_level":0,"time_range":{"duration":0,"start":0}},"team_id":"","type":"video","video_algorithm":{"algorithms":[],"complement_frame_config":null,"deflicker":null,"gameplay_configs":[],"motion_blur_config":null,"noise_reduction":null,"path":"","quality_enhance":null,"time_range":null},"width":1080},{"aigc_type":"none","audio_fade":null,"cartoon_path":"","category_id":"","category_name":"local","check_flag":63487,"crop":{"lower_left_x":0.13364055299539157,"lower_left_y":0.8648233486943162,"lower_right_x":0.8179723502304148,"lower_right_y":0.8648233486943162,"upper_left_x":0.13364055299539157,"upper_left_y":0.0,"upper_right_x":0.8179723502304148,"upper_right_y":0.0},"crop_ratio":"free","crop_scale":1.0,"duration":407933000,"extra_type_option":0,"formula_id":"","freeze":null,"has_audio":true,"height":1920,"id":"B9F1C900-86DC-4707-B072-2EBBB888FD09","intensifies_audio_path":"","intensifies_path":"","is_ai_generate_content":false,"is_copyright":false,"is_text_edit_overdub":false,"is_unified_beauty_mode":false,"local_id":"","local_material_id":"4698f1af-dcec-41b7-b1da-6c84b288da6f","material_id":"","material_name":"BV1684y1r7Qw.mp4","material_url":"","matting":{"flag":0,"has_use_quick_brush":false,"has_use_quick_eraser":false,"interactiveTime":[],"path":"","strokes":[]},"media_path":"","object_locked":null,"origin_material_id":"","path":"##_draftpath_placeholder_0E685133-18CE-45ED-8CB8-2904A212EC80_##/materials/BV1684y1r7Qw.mp4","picture_from":"none","picture_set_category_id":"","picture_set_category_name":"","request_id":"","reverse_intensifies_path":"","reverse_path":"","smart_motion":null,"source":0,"source_platform":0,"stable":{"matrix_path":"","stable_level":0,"time_range":{"duration":0,"start":0}},"team_id":"","type":"video","video_algorithm":{"algorithms":[],"complement_frame_config":null,"deflicker":null,"gameplay_configs":[],"motion_blur_config":null,"noise_reduction":null,"path":"","quality_enhance":null,"time_range":null},"width":1080},{"aigc_type":"none","audio_fade":null,"cartoon_path":"","category_id":"","category_name":"local","check_flag":63487,"crop":{"lower_left_x":0.13364055299539157,"lower_left_y":0.8648233486943162,"lower_right_x":0.8179723502304148,"lower_right_y":0.8648233486943162,"upper_left_x":0.13364055299539157,"upper_left_y":0.0,"upper_right_x":0.8179723502304148,"upper_right_y":0.0},"crop_ratio":"free","crop_scale":1.0,"duration":407933000,"extra_type_option":0,"formula_id":"","freeze":null,"has_audio":true,"height":1920,"id":"8698CCD1-BFEA-44F3-B631-4DA47FF514F7","intensifies_audio_path":"","intensifies_path":"","is_ai_generate_content":false,"is_copyright":false,"is_text_edit_overdub":false,"is_unified_beauty_mode":false,"local_id":"","local_material_id":"1e763871-ddff-4c58-8fed-694c4ce2fd21","material_id":"","material_name":"BV1684y1r7Qw.mp4","material_url":"","matting":{"flag":0,"has_use_quick_brush":false,"has_use_quick_eraser":false,"interactiveTime":[],"path":"","strokes":[]},"media_path":"","object_locked":null,"origin_material_id":"","path":"##_draftpath_placeholder_0E685133-18CE-45ED-8CB8-2904A212EC80_##/materials/BV1684y1r7Qw.mp4","picture_from":"none","picture_set_category_id":"","picture_set_category_name":"","request_id":"","reverse_intensifies_path":"","reverse_path":"","smart_motion":null,"source":0,"source_platform":0,"stable":{"matrix_path":"","stable_level":0,"time_range":{"duration":0,"start":0}},"team_id":"","type":"video","video_algorithm":{"algorithms":[],"complement_frame_config":null,"deflicker":null,"gameplay_configs":[],"motion_blur_config":null,"noise_reduction":null,"path":"","quality_enhance":null,"time_range":null},"width":1080},{"aigc_type":"none","audio_fade":null,"cartoon_path":"","category_id":"","category_name":"local","check_flag":63487,"crop":{"lower_left_x":0.13364055299539157,"lower_left_y":0.8648233486943162,"lower_right_x":0.8179723502304148,"lower_right_y":0.8648233486943162,"upper_left_x":0.13364055299539157,"upper_left_y":0.0,"upper_right_x":0.8179723502304148,"upper_right_y":0.0},"crop_ratio":"free","crop_scale":1.0,"duration":407933000,"extra_type_option":0,"formula_id":"","freeze":null,"has_audio":true,"height":1920,"id":"06AC4568-E6F5-49F7-9A39-CA7D079E9E8A","intensifies_audio_path":"","intensifies_path":"","is_ai_generate_content":false,"is_copyright":false,"is_text_edit_overdub":false,"is_unified_beauty_mode":false,"local_id":"","local_material_id":"a2ab4ff2-d07e-4fe0-b356-eb72b9a9dee0","material_id":"","material_name":"BV1684y1r7Qw.mp4","material_url":"","matting":{"flag":0,"has_use_quick_brush":false,"has_use_quick_eraser":false,"interactiveTime":[],"path":"","strokes":[]},"media_path":"","object_locked":null,"origin_material_id":"","path":"##_draftpath_placeholder_0E685133-18CE-45ED-8CB8-2904A212EC80_##/materials/BV1684y1r7Qw.mp4","picture_from":"none","picture_set_category_id":"","picture_set_category_name":"","request_id":"","reverse_intensifies_path":"","reverse_path":"","smart_motion":null,"source":0,"source_platform":0,"stable":{"matrix_path":"","stable_level":0,"time_range":{"duration":0,"start":0}},"team_id":"","type":"video","video_algorithm":{"algorithms":[],"complement_frame_config":null,"deflicker":null,"gameplay_configs":[],"motion_blur_config":null,"noise_reduction":null,"path":"","quality_enhance":null,"time_range":null},"width":1080},{"aigc_type":"none","audio_fade":null,"cartoon_path":"","category_id":"","category_name":"local","check_flag":63487,"crop":{"lower_left_x":0.13364055299539157,"lower_left_y":0.8648233486943162,"lower_right_x":0.8179723502304148,"lower_right_y":0.8648233486943162,"upper_left_x":0.13364055299539157,"upper_left_y":0.0,"upper_right_x":0.8179723502304148,"upper_right_y":0.0},"crop_ratio":"free","crop_scale":1.0,"duration":407933000,"extra_type_option":0,"formula_id":"","freeze":null,"has_audio":true,"height":1920,"id":"81A6CE2E-5178-423A-8645-B996544A7BEC","intensifies_audio_path":"","intensifies_path":"","is_ai_generate_content":false,"is_copyright":false,"is_text_edit_overdub":false,"is_unified_beauty_mode":false,"local_id":"","local_material_id":"62679d38-c2bb-40db-b99b-68bf75588ebe","material_id":"","material_name":"BV1684y1r7Qw.mp4","material_url":"","matting":{"flag":0,"has_use_quick_brush":false,"has_use_quick_eraser":false,"interactiveTime":[],"path":"","strokes":[]},"media_path":"","object_locked":null,"origin_material_id":"","path":"##_draftpath_placeholder_0E685133-18CE-45ED-8CB8-2904A212EC80_##/materials/BV1684y1r7Qw.mp4","picture_from":"none","picture_set_category_id":"","picture_set_category_name":"","request_id":"","reverse_intensifies_path":"","reverse_path":"","smart_motion":null,"source":0,"source_platform":0,"stable":{"matrix_path":"","stable_level":0,"time_range":{"duration":0,"start":0}},"team_id":"","type":"video","video_algorithm":{"algorithms":[],"complement_frame_config":null,"deflicker":null,"gameplay_configs":[],"motion_blur_config":null,"noise_reduction":null,"path":"","quality_enhance":null,"time_range":null},"width":1080},{"aigc_type":"none","audio_fade":null,"cartoon_path":"","category_id":"","category_name":"local","check_flag":63487,"crop":{"lower_left_x":0.13364055299539157,"lower_left_y":0.8648233486943162,"lower_right_x":0.8179723502304148,"lower_right_y":0.8648233486943162,"upper_left_x":0.13364055299539157,"upper_left_y":0.0,"upper_right_x":0.8179723502304148,"upper_right_y":0.0},"crop_ratio":"free","crop_scale":1.0,"duration":407933000,"extra_type_option":0,"formula_id":"","freeze":null,"has_audio":true,"height":1920,"id":"AED16DA7-68A8-44B3-A66C-84EFB44DAD8D","intensifies_audio_path":"","intensifies_path":"","is_ai_generate_content":false,"is_copyright":false,"is_text_edit_overdub":false,"is_unified_beauty_mode":false,"local_id":"","local_material_id":"d74aa3be-c146-4c6a-95bd-0bf3530278e6","material_id":"","material_name":"BV1684y1r7Qw.mp4","material_url":"","matting":{"flag":0,"has_use_quick_brush":false,"has_use_quick_eraser":false,"interactiveTime":[],"path":"","strokes":[]},"media_path":"","object_locked":null,"origin_material_id":"","path":"##_draftpath_placeholder_0E685133-18CE-45ED-8CB8-2904A212EC80_##/materials/BV1684y1r7Qw.mp4","picture_from":"none","picture_set_category_id":"","picture_set_category_name":"","request_id":"","reverse_intensifies_path":"","reverse_path":"","smart_motion":null,"source":0,"source_platform":0,"stable":{"matrix_path":"","stable_level":0,"time_range":{"duration":0,"start":0}},"team_id":"","type":"video","video_algorithm":{"algorithms":[],"complement_frame_config":null,"deflicker":null,"gameplay_configs":[],"motion_blur_config":null,"noise_reduction":null,"path":"","quality_enhance":null,"time_range":null},"width":1080},{"aigc_type":"none","audio_fade":null,"cartoon_path":"","category_id":"","category_name":"local","check_flag":63487,"crop":{"lower_left_x":0.13364055299539157,"lower_left_y":0.8648233486943162,"lower_right_x":0.8179723502304148,"lower_right_y":0.8648233486943162,"upper_left_x":0.13364055299539157,"upper_left_y":0.0,"upper_right_x":0.8179723502304148,"upper_right_y":0.0},"crop_ratio":"free","crop_scale":1.0,"duration":407933000,"extra_type_option":0,"formula_id":"","freeze":null,"has_audio":true,"height":1920,"id":"005BF663-D48B-4DEF-BD8B-39526D18996A","intensifies_audio_path":"","intensifies_path":"","is_ai_generate_content":false,"is_copyright":false,"is_text_edit_overdub":false,"is_unified_beauty_mode":false,"local_id":"","local_material_id":"23ac7b16-0aee-4fbc-b6de-1190df7d9350","material_id":"","material_name":"BV1684y1r7Qw.mp4","material_url":"","matting":{"flag":0,"has_use_quick_brush":false,"has_use_quick_eraser":false,"interactiveTime":[],"path":"","strokes":[]},"media_path":"","object_locked":null,"origin_material_id":"","path":"##_draftpath_placeholder_0E685133-18CE-45ED-8CB8-2904A212EC80_##/materials/BV1684y1r7Qw.mp4","picture_from":"none","picture_set_category_id":"","picture_set_category_name":"","request_id":"","reverse_intensifies_path":"","reverse_path":"","smart_motion":null,"source":0,"source_platform":0,"stable":{"matrix_path":"","stable_level":0,"time_range":{"duration":0,"start":0}},"team_id":"","type":"video","video_algorithm":{"algorithms":[],"complement_frame_config":null,"deflicker":null,"gameplay_configs":[],"motion_blur_config":null,"noise_reduction":null,"path":"","quality_enhance":null,"time_range":null},"width":1080},{"aigc_type":"none","audio_fade":null,"cartoon_path":"","category_id":"","category_name":"local","check_flag":63487,"crop":{"lower_left_x":0.13364055299539157,"lower_left_y":0.8648233486943162,"lower_right_x":0.8179723502304148,"lower_right_y":0.8648233486943162,"upper_left_x":0.13364055299539157,"upper_left_y":0.0,"upper_right_x":0.8179723502304148,"upper_right_y":0.0},"crop_ratio":"free","crop_scale":1.0,"duration":407933000,"extra_type_option":0,"formula_id":"","freeze":null,"has_audio":true,"height":1920,"id":"E3CA681A-8302-498A-B99C-A09D0C38B342","intensifies_audio_path":"","intensifies_path":"","is_ai_generate_content":false,"is_copyright":false,"is_text_edit_overdub":false,"is_unified_beauty_mode":false,"local_id":"","local_material_id":"f3e29479-4e31-4e5d-8733-2f0374dd34e1","material_id":"","material_name":"BV1684y1r7Qw.mp4","material_url":"","matting":{"flag":0,"has_use_quick_brush":false,"has_use_quick_eraser":false,"interactiveTime":[],"path":"","strokes":[]},"media_path":"","object_locked":null,"origin_material_id":"","path":"##_draftpath_placeholder_0E685133-18CE-45ED-8CB8-2904A212EC80_##/materials/BV1684y1r7Qw.mp4","picture_from":"none","picture_set_category_id":"","picture_set_category_name":"","request_id":"","reverse_intensifies_path":"","reverse_path":"","smart_motion":null,"source":0,"source_platform":0,"stable":{"matrix_path":"","stable_level":0,"time_range":{"duration":0,"start":0}},"team_id":"","type":"video","video_algorithm":{"algorithms":[],"complement_frame_config":null,"deflicker":null,"gameplay_configs":[],"motion_blur_config":null,"noise_reduction":null,"path":"","quality_enhance":null,"time_range":null},"width":1080},{"aigc_type":"none","audio_fade":null,"cartoon_path":"","category_id":"","category_name":"local","check_flag":63487,"crop":{"lower_left_x":0.13364055299539157,"lower_left_y":0.8648233486943162,"lower_right_x":0.8179723502304148,"lower_right_y":0.8648233486943162,"upper_left_x":0.13364055299539157,"upper_left_y":0.0,"upper_right_x":0.8179723502304148,"upper_right_y":0.0},"crop_ratio":"free","crop_scale":1.0,"duration":407933000,"extra_type_option":0,"formula_id":"","freeze":null,"has_audio":true,"height":1920,"id":"0EB46454-1453-449A-AC8B-87A3D28ADB48","intensifies_audio_path":"","intensifies_path":"","is_ai_generate_content":false,"is_copyright":false,"is_text_edit_overdub":false,"is_unified_beauty_mode":false,"local_id":"","local_material_id":"f211efd2-1a99-4e0b-bbd9-88e72673eaab","material_id":"","material_name":"BV1684y1r7Qw.mp4","material_url":"","matting":{"flag":0,"has_use_quick_brush":false,"has_use_quick_eraser":false,"interactiveTime":[],"path":"","strokes":[]},"media_path":"","object_locked":null,"origin_material_id":"","path":"##_draftpath_placeholder_0E685133-18CE-45ED-8CB8-2904A212EC80_##/materials/BV1684y1r7Qw.mp4","picture_from":"none","picture_set_category_id":"","picture_set_category_name":"","request_id":"","reverse_intensifies_path":"","reverse_path":"","smart_motion":null,"source":0,"source_platform":0,"stable":{"matrix_path":"","stable_level":0,"time_range":{"duration":0,"start":0}},"team_id":"","type":"video","video_algorithm":{"algorithms":[],"complement_frame_config":null,"deflicker":null,"gameplay_configs":[],"motion_blur_config":null,"noise_reduction":null,"path":"","quality_enhance":null,"time_range":null},"width":1080}],"vocal_beautifys":[],"vocal_separations":[{"choice":0,"id":"21CDBF0D-D6B1-4ebf-BABB-ABAB0DC215E5","production_path":"","time_range":null,"type":"vocal_separation"},{"choice":0,"id":"21CDBF0D-D6B1-4ebf-BABB-ABAB0DC215E5","production_path":"","time_range":null,"type":"vocal_separation"},{"choice":0,"id":"21CDBF0D-D6B1-4ebf-BABB-ABAB0DC215E5","production_path":"","time_range":null,"type":"vocal_separation"},{"choice":0,"id":"21CDBF0D-D6B1-4ebf-BABB-ABAB0DC215E5","production_path":"","time_range":null,"type":"vocal_separation"},{"choice":0,"id":"21CDBF0D-D6B1-4ebf-BABB-ABAB0DC215E5","production_path":"","time_range":null,"type":"vocal_separation"},{"choice":0,"id":"21CDBF0D-D6B1-4ebf-BABB-ABAB0DC215E5","production_path":"","time_range":null,"type":"vocal_separation"},{"choice":0,"id":"21CDBF0D-D6B1-4ebf-BABB-ABAB0DC215E5","production_path":"","time_range":null,"type":"vocal_separation"},{"choice":0,"id":"21CDBF0D-D6B1-4ebf-BABB-ABAB0DC215E5","production_path":"","time_range":null,"type":"vocal_separation"},{"choice":0,"id":"21CDBF0D-D6B1-4ebf-BABB-ABAB0DC215E5","production_path":"","time_range":null,"type":"vocal_separation"},{"choice":0,"id":"21CDBF0D-D6B1-4ebf-BABB-ABAB0DC215E5","production_path":"","time_range":null,"type":"vocal_separation"},{"choice":0,"id":"21CDBF0D-D6B1-4ebf-BABB-ABAB0DC215E5","production_path":"","time_range":null,"type":"vocal_separation"},{"choice":0,"id":"21CDBF0D-D6B1-4ebf-BABB-ABAB0DC215E5","production_path":"","time_range":null,"type":"vocal_separation"},{"choice":0,"id":"21CDBF0D-D6B1-4ebf-BABB-ABAB0DC215E5","production_path":"","time_range":null,"type":"vocal_separation"},{"choice":0,"id":"21CDBF0D-D6B1-4ebf-BABB-ABAB0DC215E5","production_path":"","time_range":null,"type":"vocal_separation"},{"choice":0,"id":"21CDBF0D-D6B1-4ebf-BABB-ABAB0DC215E5","production_path":"","time_range":null,"type":"vocal_separation"},{"choice":0,"id":"21CDBF0D-D6B1-4ebf-BABB-ABAB0DC215E5","production_path":"","time_range":null,"type":"vocal_separation"},{"choice":0,"id":"21CDBF0D-D6B1-4ebf-BABB-ABAB0DC215E5","production_path":"","time_range":null,"type":"vocal_separation"},{"choice":0,"id":"21CDBF0D-D6B1-4ebf-BABB-ABAB0DC215E5","production_path":"","time_range":null,"type":"vocal_separation"},{"choice":0,"id":"21CDBF0D-D6B1-4ebf-BABB-ABAB0DC215E5","production_path":"","time_range":null,"type":"vocal_separation"},{"choice":0,"id":"21CDBF0D-D6B1-4ebf-BABB-ABAB0DC215E5","production_path":"","time_range":null,"type":"vocal_separation"},{"choice":0,"id":"21CDBF0D-D6B1-4ebf-BABB-ABAB0DC215E5","production_path":"","time_range":null,"type":"vocal_separation"},{"choice":0,"id":"21CDBF0D-D6B1-4ebf-BABB-ABAB0DC215E5","production_path":"","time_range":null,"type":"vocal_separation"},{"choice":0,"id":"21CDBF0D-D6B1-4ebf-BABB-ABAB0DC215E5","production_path":"","time_range":null,"type":"vocal_separation"},{"choice":0,"id":"21CDBF0D-D6B1-4ebf-BABB-ABAB0DC215E5","production_path":"","time_range":null,"type":"vocal_separation"},{"choice":0,"id":"21CDBF0D-D6B1-4ebf-BABB-ABAB0DC215E5","production_path":"","time_range":null,"type":"vocal_separation"},{"choice":0,"id":"7B58F69E-B9B5-4c43-B630-9A023C7E8D24","production_path":"","time_range":null,"type":"vocal_separation"},{"choice":0,"id":"7B58F69E-B9B5-4c43-B630-9A023C7E8D24","production_path":"","time_range":null,"type":"vocal_separation"},{"choice":0,"id":"7B58F69E-B9B5-4c43-B630-9A023C7E8D24","production_path":"","time_range":null,"type":"vocal_separation"},{"choice":0,"id":"7B58F69E-B9B5-4c43-B630-9A023C7E8D24","production_path":"","time_range":null,"type":"vocal_separation"},{"choice":0,"id":"7B58F69E-B9B5-4c43-B630-9A023C7E8D24","production_path":"","time_range":null,"type":"vocal_separation"},{"choice":0,"id":"7B58F69E-B9B5-4c43-B630-9A023C7E8D24","production_path":"","time_range":null,"type":"vocal_separation"},{"choice":0,"id":"7B58F69E-B9B5-4c43-B630-9A023C7E8D24","production_path":"","time_range":null,"type":"vocal_separation"},{"choice":0,"id":"7B58F69E-B9B5-4c43-B630-9A023C7E8D24","production_path":"","time_range":null,"type":"vocal_separation"},{"choice":0,"id":"7B58F69E-B9B5-4c43-B630-9A023C7E8D24","production_path":"","time_range":null,"type":"vocal_separation"},{"choice":0,"id":"7B58F69E-B9B5-4c43-B630-9A023C7E8D24","production_path":"","time_range":null,"type":"vocal_separation"},{"choice":0,"id":"7B58F69E-B9B5-4c43-B630-9A023C7E8D24","production_path":"","time_range":null,"type":"vocal_separation"},{"choice":0,"id":"7B58F69E-B9B5-4c43-B630-9A023C7E8D24","production_path":"","time_range":null,"type":"vocal_separation"},{"choice":0,"id":"7B58F69E-B9B5-4c43-B630-9A023C7E8D24","production_path":"","time_range":null,"type":"vocal_separation"},{"choice":0,"id":"7B58F69E-B9B5-4c43-B630-9A023C7E8D24","production_path":"","time_range":null,"type":"vocal_separation"}]},"mutable_config":null,"name":"","new_version":"110.0.0","platform":{"app_id":0,"app_source":"","app_version":"","device_id":"","hard_disk_id":"","mac_address":"","os":"","os_version":""},"relationships":[],"render_index_track_mode_on":true,"retouch_cover":null,"source":"default","static_cover_image_path":"","time_marks":null,"tracks":[{"attribute":0,"flag":0,"id":"B9D39172-3EF8-4ca9-9C90-D37E3ADBBFE4","is_default_name":true,"name":"","segments":[{"caption_info":null,"cartoon":false,"clip":{"alpha":1.0,"flip":{"horizontal":false,"vertical":false},"rotation":0.0,"scale":{"x":1.0,"y":1.0},"transform":{"x":0.0,"y":0.08507853403141363}},"common_keyframes":[],"enable_adjust":true,"enable_color_correct_adjust":false,"enable_color_curves":true,"enable_color_match_adjust":false,"enable_color_wheels":true,"enable_lut":true,"enable_smart_color_adjust":false,"extra_material_refs":["09E7FFDD-FD61-4f10-87A5-E5D832FFF755","7FA00945-4DD3-4eae-8B9D-CAB1DB907A2C","3CCF409B-85B0-46b6-B610-44C6F5A97800","21CDBF0D-D6B1-4ebf-BABB-ABAB0DC215E5"],"group_id":"","hdr_settings":{"intensity":1.0,"mode":1,"nits":1000},"id":"40FA1B7D-9BE1-4BC0-B90F-97DE51E7414A","intensifies_audio":false,"is_placeholder":false,"is_tone_modify":false,"keyframe_refs":[],"last_nonzero_volume":1.0,"material_id":"1D5C7CC1-A093-4079-B7A9-E2806BA490ED","render_index":0,"responsive_layout":{"enable":false,"horizontal_pos_layout":0,"size_layout":0,"target_follow":"","vertical_pos_layout":0},"reverse":false,"source_timerange":{"duration":1800000,"start":0},"speed":1.0,"target_timerange":{"duration":5766666,"start":0},"template_id":"","template_scene":"default","track_attribute":0,"track_render_index":0,"uniform_scale":{"on":true,"value":1.0},"visible":true,"volume":0.0},{"caption_info":null,"cartoon":false,"clip":{"alpha":1.0,"flip":{"horizontal":false,"vertical":false},"rotation":0.0,"scale":{"x":1.0,"y":1.0},"transform":{"x":0.0,"y":0.08507853403141363}},"common_keyframes":[],"enable_adjust":true,"enable_color_correct_adjust":false,"enable_color_curves":true,"enable_color_match_adjust":false,"enable_color_wheels":true,"enable_lut":true,"enable_smart_color_adjust":false,"extra_material_refs":["09E7FFDD-FD61-4f10-87A5-E5D832FFF755","7FA00945-4DD3-4eae-8B9D-CAB1DB907A2C","3CCF409B-85B0-46b6-B610-44C6F5A97800","21CDBF0D-D6B1-4ebf-BABB-ABAB0DC215E5"],"group_id":"","hdr_settings":{"intensity":1.0,"mode":1,"nits":1000},"id":"DE154E3C-154F-4F87-9B5E-771E49E34CFE","intensifies_audio":false,"is_placeholder":false,"is_tone_modify":false,"keyframe_refs":[],"last_nonzero_volume":1.0,"material_id":"6DB3E8BD-E4A4-4CB7-B077-81FD7578A609","render_index":0,"responsive_layout":{"enable":false,"horizontal_pos_layout":0,"size_layout":0,"target_follow":"","vertical_pos_layout":0},"reverse":false,"source_timerange":{"duration":1720000,"start":1960000},"speed":1.0,"target_timerange":{"duration":4466667,"start":5766666},"template_id":"","template_scene":"default","track_attribute":0,"track_render_index":0,"uniform_scale":{"on":true,"value":1.0},"visible":true,"volume":0.0},{"caption_info":null,"cartoon":false,"clip":{"alpha":1.0,"flip":{"horizontal":false,"vertical":false},"rotation":0.0,"scale":{"x":1.0,"y":1.0},"transform":{"x":0.0,"y":0.08507853403141363}},"common_keyframes":[],"enable_adjust":true,"enable_color_correct_adjust":false,"enable_color_curves":true,"enable_color_match_adjust":false,"enable_color_wheels":true,"enable_lut":true,"enable_smart_color_adjust":false,"extra_material_refs":["09E7FFDD-FD61-4f10-87A5-E5D832FFF755","7FA00945-4DD3-4eae-8B9D-CAB1DB907A2C","3CCF409B-85B0-46b6-B610-44C6F5A97800","21CDBF0D-D6B1-4ebf-BABB-ABAB0DC215E5"],"group_id":"","hdr_settings":{"intensity":1.0,"mode":1,"nits":1000},"id":"CA7345AE-3057-44A1-AD58-4A11D4397011","intensifies_audio":false,"is_placeholder":false,"is_tone_modify":false,"keyframe_refs":[],"last_nonzero_volume":1.0,"material_id":"BEB8E674-EFF9-4247-9E22-3D806D9F0D5C","render_index":0,"responsive_layout":{"enable":false,"horizontal_pos_layout":0,"size_layout":0,"target_follow":"","vertical_pos_layout":0},"reverse":false,"source_timerange":{"duration":1839999,"start":3760000},"speed":1.0,"target_timerange":{"duration":2966667,"start":10233333},"template_id":"","template_scene":"default","track_attribute":0,"track_render_index":0,"uniform_scale":{"on":true,"value":1.0},"visible":true,"volume":0.0},{"caption_info":null,"cartoon":false,"clip":{"alpha":1.0,"flip":{"horizontal":false,"vertical":false},"rotation":0.0,"scale":{"x":1.0,"y":1.0},"transform":{"x":0.0,"y":0.08507853403141363}},"common_keyframes":[],"enable_adjust":true,"enable_color_correct_adjust":false,"enable_color_curves":true,"enable_color_match_adjust":false,"enable_color_wheels":true,"enable_lut":true,"enable_smart_color_adjust":false,"extra_material_refs":["09E7FFDD-FD61-4f10-87A5-E5D832FFF755","7FA00945-4DD3-4eae-8B9D-CAB1DB907A2C","3CCF409B-85B0-46b6-B610-44C6F5A97800","21CDBF0D-D6B1-4ebf-BABB-ABAB0DC215E5"],"group_id":"","hdr_settings":{"intensity":1.0,"mode":1,"nits":1000},"id":"5358E3D4-7134-4D7D-BBBD-710B3ED79502","intensifies_audio":false,"is_placeholder":false,"is_tone_modify":false,"keyframe_refs":[],"last_nonzero_volume":1.0,"material_id":"BA5190A8-D6AA-4BEE-9B3A-B0AC409425FE","render_index":0,"responsive_layout":{"enable":false,"horizontal_pos_layout":0,"size_layout":0,"target_follow":"","vertical_pos_layout":0},"reverse":false,"source_timerange":{"duration":2120000,"start":5679000},"speed":1.0,"target_timerange":{"duration":3433333,"start":13200000},"template_id":"","template_scene":"default","track_attribute":0,"track_render_index":0,"uniform_scale":{"on":true,"value":1.0},"visible":true,"volume":0.0},{"caption_info":null,"cartoon":false,"clip":{"alpha":1.0,"flip":{"horizontal":false,"vertical":false},"rotation":0.0,"scale":{"x":1.0,"y":1.0},"transform":{"x":0.0,"y":0.08507853403141363}},"common_keyframes":[],"enable_adjust":true,"enable_color_correct_adjust":false,"enable_color_curves":true,"enable_color_match_adjust":false,"enable_color_wheels":true,"enable_lut":true,"enable_smart_color_adjust":false,"extra_material_refs":["09E7FFDD-FD61-4f10-87A5-E5D832FFF755","7FA00945-4DD3-4eae-8B9D-CAB1DB907A2C","3CCF409B-85B0-46b6-B610-44C6F5A97800","21CDBF0D-D6B1-4ebf-BABB-ABAB0DC215E5"],"group_id":"","hdr_settings":{"intensity":1.0,"mode":1,"nits":1000},"id":"D8ACC5B8-3911-4B94-9B92-27C8A590D73F","intensifies_audio":false,"is_placeholder":false,"is_tone_modify":false,"keyframe_refs":[],"last_nonzero_volume":1.0,"material_id":"D62123B7-241B-4D1F-AC39-684750680B77","render_index":0,"responsive_layout":{"enable":false,"horizontal_pos_layout":0,"size_layout":0,"target_follow":"","vertical_pos_layout":0},"reverse":false,"source_timerange":{"duration":1801000,"start":17679000},"speed":1.0,"target_timerange":{"duration":4233333,"start":16633333},"template_id":"","template_scene":"default","track_attribute":0,"track_render_index":0,"uniform_scale":{"on":true,"value":1.0},"visible":true,"volume":0.0},{"caption_info":null,"cartoon":false,"clip":{"alpha":1.0,"flip":{"horizontal":false,"vertical":false},"rotation":0.0,"scale":{"x":1.0,"y":1.0},"transform":{"x":0.0,"y":0.08507853403141363}},"common_keyframes":[],"enable_adjust":true,"enable_color_correct_adjust":false,"enable_color_curves":true,"enable_color_match_adjust":false,"enable_color_wheels":true,"enable_lut":true,"enable_smart_color_adjust":false,"extra_material_refs":["09E7FFDD-FD61-4f10-87A5-E5D832FFF755","7FA00945-4DD3-4eae-8B9D-CAB1DB907A2C","3CCF409B-85B0-46b6-B610-44C6F5A97800","21CDBF0D-D6B1-4ebf-BABB-ABAB0DC215E5"],"group_id":"","hdr_settings":{"intensity":1.0,"mode":1,"nits":1000},"id":"157DA4B4-8FB0-4834-94D3-29044EDC705F","intensifies_audio":false,"is_placeholder":false,"is_tone_modify":false,"keyframe_refs":[],"last_nonzero_volume":1.0,"material_id":"93D1BE65-0843-4B58-8957-B2379F3BE485","render_index":0,"responsive_layout":{"enable":false,"horizontal_pos_layout":0,"size_layout":0,"target_follow":"","vertical_pos_layout":0},"reverse":false,"source_timerange":{"duration":1839999,"start":19600000},"speed":1.0,"target_timerange":{"duration":4666667,"start":20866666},"template_id":"","template_scene":"default","track_attribute":0,"track_render_index":0,"uniform_scale":{"on":true,"value":1.0},"visible":true,"volume":0.0},{"caption_info":null,"cartoon":false,"clip":{"alpha":1.0,"flip":{"horizontal":false,"vertical":false},"rotation":0.0,"scale":{"x":1.0,"y":1.0},"transform":{"x":0.0,"y":0.08507853403141363}},"common_keyframes":[],"enable_adjust":true,"enable_color_correct_adjust":false,"enable_color_curves":true,"enable_color_match_adjust":false,"enable_color_wheels":true,"enable_lut":true,"enable_smart_color_adjust":false,"extra_material_refs":["09E7FFDD-FD61-4f10-87A5-E5D832FFF755","7FA00945-4DD3-4eae-8B9D-CAB1DB907A2C","3CCF409B-85B0-46b6-B610-44C6F5A97800","21CDBF0D-D6B1-4ebf-BABB-ABAB0DC215E5"],"group_id":"","hdr_settings":{"intensity":1.0,"mode":1,"nits":1000},"id":"660AD608-BBD1-489C-B54A-C66CF6F90C12","intensifies_audio":false,"is_placeholder":false,"is_tone_modify":false,"keyframe_refs":[],"last_nonzero_volume":1.0,"material_id":"1252C518-50BE-482A-A5C1-54BF3E76F28A","render_index":0,"responsive_layout":{"enable":false,"horizontal_pos_layout":0,"size_layout":0,"target_follow":"","vertical_pos_layout":0},"reverse":false,"source_timerange":{"duration":1800000,"start":21559000},"speed":1.0,"target_timerange":{"duration":5266667,"start":25533333},"template_id":"","template_scene":"default","track_attribute":0,"track_render_index":0,"uniform_scale":{"on":true,"value":1.0},"visible":true,"volume":0.0},{"caption_info":null,"cartoon":false,"clip":{"alpha":1.0,"flip":{"horizontal":false,"vertical":false},"rotation":0.0,"scale":{"x":1.0,"y":1.0},"transform":{"x":0.0,"y":0.08507853403141363}},"common_keyframes":[],"enable_adjust":true,"enable_color_correct_adjust":false,"enable_color_curves":true,"enable_color_match_adjust":false,"enable_color_wheels":true,"enable_lut":true,"enable_smart_color_adjust":false,"extra_material_refs":["09E7FFDD-FD61-4f10-87A5-E5D832FFF755","7FA00945-4DD3-4eae-8B9D-CAB1DB907A2C","3CCF409B-85B0-46b6-B610-44C6F5A97800","21CDBF0D-D6B1-4ebf-BABB-ABAB0DC215E5"],"group_id":"","hdr_settings":{"intensity":1.0,"mode":1,"nits":1000},"id":"270949D9-EC62-4E55-89A7-9606014A56DC","intensifies_audio":false,"is_placeholder":false,"is_tone_modify":false,"keyframe_refs":[],"last_nonzero_volume":1.0,"material_id":"9411B2CC-5853-4046-9E7F-10DF4A8E8C4F","render_index":0,"responsive_layout":{"enable":false,"horizontal_pos_layout":0,"size_layout":0,"target_follow":"","vertical_pos_layout":0},"reverse":false,"source_timerange":{"duration":2038999,"start":23480000},"speed":1.0,"target_timerange":{"duration":3200000,"start":30800000},"template_id":"","template_scene":"default","track_attribute":0,"track_render_index":0,"uniform_scale":{"on":true,"value":1.0},"visible":true,"volume":0.0},{"caption_info":null,"cartoon":false,"clip":{"alpha":1.0,"flip":{"horizontal":false,"vertical":false},"rotation":0.0,"scale":{"x":1.0,"y":1.0},"transform":{"x":0.0,"y":0.08507853403141363}},"common_keyframes":[],"enable_adjust":true,"enable_color_correct_adjust":false,"enable_color_curves":true,"enable_color_match_adjust":false,"enable_color_wheels":true,"enable_lut":true,"enable_smart_color_adjust":false,"extra_material_refs":["09E7FFDD-FD61-4f10-87A5-E5D832FFF755","7FA00945-4DD3-4eae-8B9D-CAB1DB907A2C","3CCF409B-85B0-46b6-B610-44C6F5A97800","21CDBF0D-D6B1-4ebf-BABB-ABAB0DC215E5"],"group_id":"","hdr_settings":{"intensity":1.0,"mode":1,"nits":1000},"id":"BACD8CFA-6F7F-40A8-B204-177D1B8F1F4F","intensifies_audio":false,"is_placeholder":false,"is_tone_modify":false,"keyframe_refs":[],"last_nonzero_volume":1.0,"material_id":"BD514472-3C62-4F42-8D0F-D4685B30FC79","render_index":0,"responsive_layout":{"enable":false,"horizontal_pos_layout":0,"size_layout":0,"target_follow":"","vertical_pos_layout":0},"reverse":false,"source_timerange":{"duration":1878999,"start":25640000},"speed":1.0,"target_timerange":{"duration":2933333,"start":34000000},"template_id":"","template_scene":"default","track_attribute":0,"track_render_index":0,"uniform_scale":{"on":true,"value":1.0},"visible":true,"volume":0.0},{"caption_info":null,"cartoon":false,"clip":{"alpha":1.0,"flip":{"horizontal":false,"vertical":false},"rotation":0.0,"scale":{"x":1.0,"y":1.0},"transform":{"x":0.0,"y":0.08507853403141363}},"common_keyframes":[],"enable_adjust":true,"enable_color_correct_adjust":false,"enable_color_curves":true,"enable_color_match_adjust":false,"enable_color_wheels":true,"enable_lut":true,"enable_smart_color_adjust":false,"extra_material_refs":["09E7FFDD-FD61-4f10-87A5-E5D832FFF755","7FA00945-4DD3-4eae-8B9D-CAB1DB907A2C","3CCF409B-85B0-46b6-B610-44C6F5A97800","21CDBF0D-D6B1-4ebf-BABB-ABAB0DC215E5"],"group_id":"","hdr_settings":{"intensity":1.0,"mode":1,"nits":1000},"id":"1F381764-275D-41B3-88BA-D6B7BA6B181F","intensifies_audio":false,"is_placeholder":false,"is_tone_modify":false,"keyframe_refs":[],"last_nonzero_volume":1.0,"material_id":"47CBA23E-30A1-4777-A524-2FD2D33CA3CA","render_index":0,"responsive_layout":{"enable":false,"horizontal_pos_layout":0,"size_layout":0,"target_follow":"","vertical_pos_layout":0},"reverse":false,"source_timerange":{"duration":1399999,"start":27600000},"speed":1.0,"target_timerange":{"duration":2233333,"start":36933333},"template_id":"","template_scene":"default","track_attribute":0,"track_render_index":0,"uniform_scale":{"on":true,"value":1.0},"visible":true,"volume":0.0},{"caption_info":null,"cartoon":false,"clip":{"alpha":1.0,"flip":{"horizontal":false,"vertical":false},"rotation":0.0,"scale":{"x":1.0,"y":1.0},"transform":{"x":0.0,"y":0.08507853403141363}},"common_keyframes":[],"enable_adjust":true,"enable_color_correct_adjust":false,"enable_color_curves":true,"enable_color_match_adjust":false,"enable_color_wheels":true,"enable_lut":true,"enable_smart_color_adjust":false,"extra_material_refs":["09E7FFDD-FD61-4f10-87A5-E5D832FFF755","7FA00945-4DD3-4eae-8B9D-CAB1DB907A2C","3CCF409B-85B0-46b6-B610-44C6F5A97800","21CDBF0D-D6B1-4ebf-BABB-ABAB0DC215E5"],"group_id":"","hdr_settings":{"intensity":1.0,"mode":1,"nits":1000},"id":"3B4A1D9C-E730-4C2D-955A-2AE2FC3936DB","intensifies_audio":false,"is_placeholder":false,"is_tone_modify":false,"keyframe_refs":[],"last_nonzero_volume":1.0,"material_id":"7785A408-D075-4352-B9F6-0A376EB3E87F","render_index":0,"responsive_layout":{"enable":false,"horizontal_pos_layout":0,"size_layout":0,"target_follow":"","vertical_pos_layout":0},"reverse":false,"source_timerange":{"duration":1640000,"start":29160000},"speed":1.0,"target_timerange":{"duration":2633334,"start":39166666},"template_id":"","template_scene":"default","track_attribute":0,"track_render_index":0,"uniform_scale":{"on":true,"value":1.0},"visible":true,"volume":0.0},{"caption_info":null,"cartoon":false,"clip":{"alpha":1.0,"flip":{"horizontal":false,"vertical":false},"rotation":0.0,"scale":{"x":1.0,"y":1.0},"transform":{"x":0.0,"y":0.08507853403141363}},"common_keyframes":[],"enable_adjust":true,"enable_color_correct_adjust":false,"enable_color_curves":true,"enable_color_match_adjust":false,"enable_color_wheels":true,"enable_lut":true,"enable_smart_color_adjust":false,"extra_material_refs":["09E7FFDD-FD61-4f10-87A5-E5D832FFF755","7FA00945-4DD3-4eae-8B9D-CAB1DB907A2C","3CCF409B-85B0-46b6-B610-44C6F5A97800","21CDBF0D-D6B1-4ebf-BABB-ABAB0DC215E5"],"group_id":"","hdr_settings":{"intensity":1.0,"mode":1,"nits":1000},"id":"C3F3F8D8-3EF3-46BE-9240-9EB2E61CB450","intensifies_audio":false,"is_placeholder":false,"is_tone_modify":false,"keyframe_refs":[],"last_nonzero_volume":1.0,"material_id":"B240D271-7A8F-4C92-94EE-A1CBBD901498","render_index":0,"responsive_layout":{"enable":false,"horizontal_pos_layout":0,"size_layout":0,"target_follow":"","vertical_pos_layout":0},"reverse":false,"source_timerange":{"duration":2121000,"start":49159000},"speed":1.0,"target_timerange":{"duration":2633333,"start":41800000},"template_id":"","template_scene":"default","track_attribute":0,"track_render_index":0,"uniform_scale":{"on":true,"value":1.0},"visible":true,"volume":0.0},{"caption_info":null,"cartoon":false,"clip":{"alpha":1.0,"flip":{"horizontal":false,"vertical":false},"rotation":0.0,"scale":{"x":1.0,"y":1.0},"transform":{"x":0.0,"y":0.08507853403141363}},"common_keyframes":[],"enable_adjust":true,"enable_color_correct_adjust":false,"enable_color_curves":true,"enable_color_match_adjust":false,"enable_color_wheels":true,"enable_lut":true,"enable_smart_color_adjust":false,"extra_material_refs":["09E7FFDD-FD61-4f10-87A5-E5D832FFF755","7FA00945-4DD3-4eae-8B9D-CAB1DB907A2C","3CCF409B-85B0-46b6-B610-44C6F5A97800","21CDBF0D-D6B1-4ebf-BABB-ABAB0DC215E5"],"group_id":"","hdr_settings":{"intensity":1.0,"mode":1,"nits":1000},"id":"7C7C0B41-C974-4E18-84B7-12067EEC9467","intensifies_audio":false,"is_placeholder":false,"is_tone_modify":false,"keyframe_refs":[],"last_nonzero_volume":1.0,"material_id":"045316CC-707F-4D1C-84FD-E3600F6F2D8E","render_index":0,"responsive_layout":{"enable":false,"horizontal_pos_layout":0,"size_layout":0,"target_follow":"","vertical_pos_layout":0},"reverse":false,"source_timerange":{"duration":1560000,"start":51400000},"speed":1.0,"target_timerange":{"duration":1933333,"start":44433333},"template_id":"","template_scene":"default","track_attribute":0,"track_render_index":0,"uniform_scale":{"on":true,"value":1.0},"visible":true,"volume":0.0},{"caption_info":null,"cartoon":false,"clip":{"alpha":1.0,"flip":{"horizontal":false,"vertical":false},"rotation":0.0,"scale":{"x":1.0,"y":1.0},"transform":{"x":0.0,"y":0.08507853403141363}},"common_keyframes":[],"enable_adjust":true,"enable_color_correct_adjust":false,"enable_color_curves":true,"enable_color_match_adjust":false,"enable_color_wheels":true,"enable_lut":true,"enable_smart_color_adjust":false,"extra_material_refs":["09E7FFDD-FD61-4f10-87A5-E5D832FFF755","7FA00945-4DD3-4eae-8B9D-CAB1DB907A2C","3CCF409B-85B0-46b6-B610-44C6F5A97800","21CDBF0D-D6B1-4ebf-BABB-ABAB0DC215E5"],"group_id":"","hdr_settings":{"intensity":1.0,"mode":1,"nits":1000},"id":"CFA9B5F4-20F7-4ABC-89C8-A2F16F96BC9B","intensifies_audio":false,"is_placeholder":false,"is_tone_modify":false,"keyframe_refs":[],"last_nonzero_volume":1.0,"material_id":"25C8A55E-8D73-4B10-A7BC-D50D2292BCBE","render_index":0,"responsive_layout":{"enable":false,"horizontal_pos_layout":0,"size_layout":0,"target_follow":"","vertical_pos_layout":0},"reverse":false,"source_timerange":{"duration":2161000,"start":53039000},"speed":1.0,"target_timerange":{"duration":4066667,"start":46366666},"template_id":"","template_scene":"default","track_attribute":0,"track_render_index":0,"uniform_scale":{"on":true,"value":1.0},"visible":true,"volume":0.0},{"caption_info":null,"cartoon":false,"clip":{"alpha":1.0,"flip":{"horizontal":false,"vertical":false},"rotation":0.0,"scale":{"x":1.0,"y":1.0},"transform":{"x":0.0,"y":0.08507853403141363}},"common_keyframes":[],"enable_adjust":true,"enable_color_correct_adjust":false,"enable_color_curves":true,"enable_color_match_adjust":false,"enable_color_wheels":true,"enable_lut":true,"enable_smart_color_adjust":false,"extra_material_refs":["09E7FFDD-FD61-4f10-87A5-E5D832FFF755","7FA00945-4DD3-4eae-8B9D-CAB1DB907A2C","3CCF409B-85B0-46b6-B610-44C6F5A97800","21CDBF0D-D6B1-4ebf-BABB-ABAB0DC215E5"],"group_id":"","hdr_settings":{"intensity":1.0,"mode":1,"nits":1000},"id":"6575F445-5759-49AF-906A-C868BE12A380","intensifies_audio":false,"is_placeholder":false,"is_tone_modify":false,"keyframe_refs":[],"last_nonzero_volume":1.0,"material_id":"2AC16FEF-E94B-4016-A8AC-5AA2931BAF70","render_index":0,"responsive_layout":{"enable":false,"horizontal_pos_layout":0,"size_layout":0,"target_follow":"","vertical_pos_layout":0},"reverse":false,"source_timerange":{"duration":2000000,"start":55320000},"speed":1.0,"target_timerange":{"duration":3766667,"start":50433333},"template_id":"","template_scene":"default","track_attribute":0,"track_render_index":0,"uniform_scale":{"on":true,"value":1.0},"visible":true,"volume":0.0},{"caption_info":null,"cartoon":false,"clip":{"alpha":1.0,"flip":{"horizontal":false,"vertical":false},"rotation":0.0,"scale":{"x":1.0,"y":1.0},"transform":{"x":0.0,"y":0.08507853403141363}},"common_keyframes":[],"enable_adjust":true,"enable_color_correct_adjust":false,"enable_color_curves":true,"enable_color_match_adjust":false,"enable_color_wheels":true,"enable_lut":true,"enable_smart_color_adjust":false,"extra_material_refs":["09E7FFDD-FD61-4f10-87A5-E5D832FFF755","7FA00945-4DD3-4eae-8B9D-CAB1DB907A2C","3CCF409B-85B0-46b6-B610-44C6F5A97800","21CDBF0D-D6B1-4ebf-BABB-ABAB0DC215E5"],"group_id":"","hdr_settings":{"intensity":1.0,"mode":1,"nits":1000},"id":"23A5B112-8005-42DE-A633-5EA724CDF4AF","intensifies_audio":false,"is_placeholder":false,"is_tone_modify":false,"keyframe_refs":[],"last_nonzero_volume":1.0,"material_id":"502A0530-683B-4B86-ADD2-3C6273AD5A39","render_index":0,"responsive_layout":{"enable":false,"horizontal_pos_layout":0,"size_layout":0,"target_follow":"","vertical_pos_layout":0},"reverse":false,"source_timerange":{"duration":1880000,"start":57320000},"speed":1.0,"target_timerange":{"duration":3533333,"start":54200000},"template_id":"","template_scene":"default","track_attribute":0,"track_render_index":0,"uniform_scale":{"on":true,"value":1.0},"visible":true,"volume":0.0},{"caption_info":null,"cartoon":false,"clip":{"alpha":1.0,"flip":{"horizontal":false,"vertical":false},"rotation":0.0,"scale":{"x":1.0,"y":1.0},"transform":{"x":0.0,"y":0.08507853403141363}},"common_keyframes":[],"enable_adjust":true,"enable_color_correct_adjust":false,"enable_color_curves":true,"enable_color_match_adjust":false,"enable_color_wheels":true,"enable_lut":true,"enable_smart_color_adjust":false,"extra_material_refs":["09E7FFDD-FD61-4f10-87A5-E5D832FFF755","7FA00945-4DD3-4eae-8B9D-CAB1DB907A2C","3CCF409B-85B0-46b6-B610-44C6F5A97800","21CDBF0D-D6B1-4ebf-BABB-ABAB0DC215E5"],"group_id":"","hdr_settings":{"intensity":1.0,"mode":1,"nits":1000},"id":"0335F210-BC49-4AFC-BADB-20271BDA3F6E","intensifies_audio":false,"is_placeholder":false,"is_tone_modify":false,"keyframe_refs":[],"last_nonzero_volume":1.0,"material_id":"021AE0AA-FB24-4BEA-8F05-3A3EEB9ABBCE","render_index":0,"responsive_layout":{"enable":false,"horizontal_pos_layout":0,"size_layout":0,"target_follow":"","vertical_pos_layout":0},"reverse":false,"source_timerange":{"duration":2039999,"start":73200000},"speed":1.0,"target_timerange":{"duration":8666667,"start":57733333},"template_id":"","template_scene":"default","track_attribute":0,"track_render_index":0,"uniform_scale":{"on":true,"value":1.0},"visible":true,"volume":0.0},{"caption_info":null,"cartoon":false,"clip":{"alpha":1.0,"flip":{"horizontal":false,"vertical":false},"rotation":0.0,"scale":{"x":1.0,"y":1.0},"transform":{"x":0.0,"y":0.08507853403141363}},"common_keyframes":[],"enable_adjust":true,"enable_color_correct_adjust":false,"enable_color_curves":true,"enable_color_match_adjust":false,"enable_color_wheels":true,"enable_lut":true,"enable_smart_color_adjust":false,"extra_material_refs":["09E7FFDD-FD61-4f10-87A5-E5D832FFF755","7FA00945-4DD3-4eae-8B9D-CAB1DB907A2C","3CCF409B-85B0-46b6-B610-44C6F5A97800","21CDBF0D-D6B1-4ebf-BABB-ABAB0DC215E5"],"group_id":"","hdr_settings":{"intensity":1.0,"mode":1,"nits":1000},"id":"8CAA0E64-22BF-4B93-9FA5-2C0F4DAFFBA0","intensifies_audio":false,"is_placeholder":false,"is_tone_modify":false,"keyframe_refs":[],"last_nonzero_volume":1.0,"material_id":"B9F1C900-86DC-4707-B072-2EBBB888FD09","render_index":0,"responsive_layout":{"enable":false,"horizontal_pos_layout":0,"size_layout":0,"target_follow":"","vertical_pos_layout":0},"reverse":false,"source_timerange":{"duration":1960999,"start":75319000},"speed":1.0,"target_timerange":{"duration":3300000,"start":66400000},"template_id":"","template_scene":"default","track_attribute":0,"track_render_index":0,"uniform_scale":{"on":true,"value":1.0},"visible":true,"volume":0.0},{"caption_info":null,"cartoon":false,"clip":{"alpha":1.0,"flip":{"horizontal":false,"vertical":false},"rotation":0.0,"scale":{"x":1.0,"y":1.0},"transform":{"x":0.0,"y":0.08507853403141363}},"common_keyframes":[],"enable_adjust":true,"enable_color_correct_adjust":false,"enable_color_curves":true,"enable_color_match_adjust":false,"enable_color_wheels":true,"enable_lut":true,"enable_smart_color_adjust":false,"extra_material_refs":["09E7FFDD-FD61-4f10-87A5-E5D832FFF755","7FA00945-4DD3-4eae-8B9D-CAB1DB907A2C","3CCF409B-85B0-46b6-B610-44C6F5A97800","21CDBF0D-D6B1-4ebf-BABB-ABAB0DC215E5"],"group_id":"","hdr_settings":{"intensity":1.0,"mode":1,"nits":1000},"id":"4D38AA5D-EC12-4C6A-8843-080D6F01453D","intensifies_audio":false,"is_placeholder":false,"is_tone_modify":false,"keyframe_refs":[],"last_nonzero_volume":1.0,"material_id":"8698CCD1-BFEA-44F3-B631-4DA47FF514F7","render_index":0,"responsive_layout":{"enable":false,"horizontal_pos_layout":0,"size_layout":0,"target_follow":"","vertical_pos_layout":0},"reverse":false,"source_timerange":{"duration":2038999,"start":77400000},"speed":1.0,"target_timerange":{"duration":3433333,"start":69700000},"template_id":"","template_scene":"default","track_attribute":0,"track_render_index":0,"uniform_scale":{"on":true,"value":1.0},"visible":true,"volume":0.0},{"caption_info":null,"cartoon":false,"clip":{"alpha":1.0,"flip":{"horizontal":false,"vertical":false},"rotation":0.0,"scale":{"x":1.0,"y":1.0},"transform":{"x":0.0,"y":0.08507853403141363}},"common_keyframes":[],"enable_adjust":true,"enable_color_correct_adjust":false,"enable_color_curves":true,"enable_color_match_adjust":false,"enable_color_wheels":true,"enable_lut":true,"enable_smart_color_adjust":false,"extra_material_refs":["09E7FFDD-FD61-4f10-87A5-E5D832FFF755","7FA00945-4DD3-4eae-8B9D-CAB1DB907A2C","3CCF409B-85B0-46b6-B610-44C6F5A97800","21CDBF0D-D6B1-4ebf-BABB-ABAB0DC215E5"],"group_id":"","hdr_settings":{"intensity":1.0,"mode":1,"nits":1000},"id":"A853A1EC-5202-4ED0-B0F5-169E23047B62","intensifies_audio":false,"is_placeholder":false,"is_tone_modify":false,"keyframe_refs":[],"last_nonzero_volume":1.0,"material_id":"06AC4568-E6F5-49F7-9A39-CA7D079E9E8A","render_index":0,"responsive_layout":{"enable":false,"horizontal_pos_layout":0,"size_layout":0,"target_follow":"","vertical_pos_layout":0},"reverse":false,"source_timerange":{"duration":2399999,"start":79560000},"speed":1.0,"target_timerange":{"duration":3200000,"start":73133333},"template_id":"","template_scene":"default","track_attribute":0,"track_render_index":0,"uniform_scale":{"on":true,"value":1.0},"visible":true,"volume":0.0},{"caption_info":null,"cartoon":false,"clip":{"alpha":1.0,"flip":{"horizontal":false,"vertical":false},"rotation":0.0,"scale":{"x":1.0,"y":1.0},"transform":{"x":0.0,"y":0.08507853403141363}},"common_keyframes":[],"enable_adjust":true,"enable_color_correct_adjust":false,"enable_color_curves":true,"enable_color_match_adjust":false,"enable_color_wheels":true,"enable_lut":true,"enable_smart_color_adjust":false,"extra_material_refs":["09E7FFDD-FD61-4f10-87A5-E5D832FFF755","7FA00945-4DD3-4eae-8B9D-CAB1DB907A2C","3CCF409B-85B0-46b6-B610-44C6F5A97800","21CDBF0D-D6B1-4ebf-BABB-ABAB0DC215E5"],"group_id":"","hdr_settings":{"intensity":1.0,"mode":1,"nits":1000},"id":"B69B41AD-C53D-4A10-86DE-F6E8DED83DED","intensifies_audio":false,"is_placeholder":false,"is_tone_modify":false,"keyframe_refs":[],"last_nonzero_volume":1.0,"material_id":"81A6CE2E-5178-423A-8645-B996544A7BEC","render_index":0,"responsive_layout":{"enable":false,"horizontal_pos_layout":0,"size_layout":0,"target_follow":"","vertical_pos_layout":0},"reverse":false,"source_timerange":{"duration":2280000,"start":82079000},"speed":1.0,"target_timerange":{"duration":3066667,"start":76333333},"template_id":"","template_scene":"default","track_attribute":0,"track_render_index":0,"uniform_scale":{"on":true,"value":1.0},"visible":true,"volume":0.0},{"caption_info":null,"cartoon":false,"clip":{"alpha":1.0,"flip":{"horizontal":false,"vertical":false},"rotation":0.0,"scale":{"x":1.0,"y":1.0},"transform":{"x":0.0,"y":0.08507853403141363}},"common_keyframes":[],"enable_adjust":true,"enable_color_correct_adjust":false,"enable_color_curves":true,"enable_color_match_adjust":false,"enable_color_wheels":true,"enable_lut":true,"enable_smart_color_adjust":false,"extra_material_refs":["09E7FFDD-FD61-4f10-87A5-E5D832FFF755","7FA00945-4DD3-4eae-8B9D-CAB1DB907A2C","3CCF409B-85B0-46b6-B610-44C6F5A97800","21CDBF0D-D6B1-4ebf-BABB-ABAB0DC215E5"],"group_id":"","hdr_settings":{"intensity":1.0,"mode":1,"nits":1000},"id":"EF292E09-5714-46D2-8AC7-4EFEDB233458","intensifies_audio":false,"is_placeholder":false,"is_tone_modify":false,"keyframe_refs":[],"last_nonzero_volume":1.0,"material_id":"AED16DA7-68A8-44B3-A66C-84EFB44DAD8D","render_index":0,"responsive_layout":{"enable":false,"horizontal_pos_layout":0,"size_layout":0,"target_follow":"","vertical_pos_layout":0},"reverse":false,"source_timerange":{"duration":1280000,"start":87319000},"speed":1.0,"target_timerange":{"duration":1733333,"start":79400000},"template_id":"","template_scene":"default","track_attribute":0,"track_render_index":0,"uniform_scale":{"on":true,"value":1.0},"visible":true,"volume":0.0},{"caption_info":null,"cartoon":false,"clip":{"alpha":1.0,"flip":{"horizontal":false,"vertical":false},"rotation":0.0,"scale":{"x":1.0,"y":1.0},"transform":{"x":0.0,"y":0.08507853403141363}},"common_keyframes":[],"enable_adjust":true,"enable_color_correct_adjust":false,"enable_color_curves":true,"enable_color_match_adjust":false,"enable_color_wheels":true,"enable_lut":true,"enable_smart_color_adjust":false,"extra_material_refs":["09E7FFDD-FD61-4f10-87A5-E5D832FFF755","7FA00945-4DD3-4eae-8B9D-CAB1DB907A2C","3CCF409B-85B0-46b6-B610-44C6F5A97800","21CDBF0D-D6B1-4ebf-BABB-ABAB0DC215E5"],"group_id":"","hdr_settings":{"intensity":1.0,"mode":1,"nits":1000},"id":"CE8CEF31-B04C-4AE8-9A65-281F8DC1B956","intensifies_audio":false,"is_placeholder":false,"is_tone_modify":false,"keyframe_refs":[],"last_nonzero_volume":1.0,"material_id":"005BF663-D48B-4DEF-BD8B-39526D18996A","render_index":0,"responsive_layout":{"enable":false,"horizontal_pos_layout":0,"size_layout":0,"target_follow":"","vertical_pos_layout":0},"reverse":false,"source_timerange":{"duration":2000000,"start":88719000},"speed":1.0,"target_timerange":{"duration":1733333,"start":81133333},"template_id":"","template_scene":"default","track_attribute":0,"track_render_index":0,"uniform_scale":{"on":true,"value":1.0},"visible":true,"volume":0.0},{"caption_info":null,"cartoon":false,"clip":{"alpha":1.0,"flip":{"horizontal":false,"vertical":false},"rotation":0.0,"scale":{"x":1.0,"y":1.0},"transform":{"x":0.0,"y":0.08507853403141363}},"common_keyframes":[],"enable_adjust":true,"enable_color_correct_adjust":false,"enable_color_curves":true,"enable_color_match_adjust":false,"enable_color_wheels":true,"enable_lut":true,"enable_smart_color_adjust":false,"extra_material_refs":["09E7FFDD-FD61-4f10-87A5-E5D832FFF755","7FA00945-4DD3-4eae-8B9D-CAB1DB907A2C","3CCF409B-85B0-46b6-B610-44C6F5A97800","21CDBF0D-D6B1-4ebf-BABB-ABAB0DC215E5"],"group_id":"","hdr_settings":{"intensity":1.0,"mode":1,"nits":1000},"id":"3F063B29-B424-4D95-8EFF-DD81F504C9AC","intensifies_audio":false,"is_placeholder":false,"is_tone_modify":false,"keyframe_refs":[],"last_nonzero_volume":1.0,"material_id":"E3CA681A-8302-498A-B99C-A09D0C38B342","render_index":0,"responsive_layout":{"enable":false,"horizontal_pos_layout":0,"size_layout":0,"target_follow":"","vertical_pos_layout":0},"reverse":false,"source_timerange":{"duration":2000000,"start":90839000},"speed":1.0,"target_timerange":{"duration":1733334,"start":82866666},"template_id":"","template_scene":"default","track_attribute":0,"track_render_index":0,"uniform_scale":{"on":true,"value":1.0},"visible":true,"volume":0.0},{"caption_info":null,"cartoon":false,"clip":{"alpha":1.0,"flip":{"horizontal":false,"vertical":false},"rotation":0.0,"scale":{"x":1.0,"y":1.0},"transform":{"x":0.0,"y":0.08507853403141363}},"common_keyframes":[],"enable_adjust":true,"enable_color_correct_adjust":false,"enable_color_curves":true,"enable_color_match_adjust":false,"enable_color_wheels":true,"enable_lut":true,"enable_smart_color_adjust":false,"extra_material_refs":["09E7FFDD-FD61-4f10-87A5-E5D832FFF755","7FA00945-4DD3-4eae-8B9D-CAB1DB907A2C","3CCF409B-85B0-46b6-B610-44C6F5A97800","21CDBF0D-D6B1-4ebf-BABB-ABAB0DC215E5"],"group_id":"","hdr_settings":{"intensity":1.0,"mode":1,"nits":1000},"id":"DFA99275-8A42-4348-AEEF-6B35882F4F36","intensifies_audio":false,"is_placeholder":false,"is_tone_modify":false,"keyframe_refs":[],"last_nonzero_volume":1.0,"material_id":"0EB46454-1453-449A-AC8B-87A3D28ADB48","render_index":0,"responsive_layout":{"enable":false,"horizontal_pos_layout":0,"size_layout":0,"target_follow":"","vertical_pos_layout":0},"reverse":false,"source_timerange":{"duration":1759999,"start":92959000},"speed":1.0,"target_timerange":{"duration":1533333,"start":84600000},"template_id":"","template_scene":"default","track_attribute":0,"track_render_index":0,"uniform_scale":{"on":true,"value":1.0},"visible":true,"volume":0.0}],"type":"video"},{"attribute":0,"flag":0,"id":"6F5113F7-102C-4828-B9F3-547ABE75E020","is_default_name":true,"name":"","segments":[{"caption_info":null,"cartoon":false,"clip":null,"common_keyframes":[],"enable_adjust":false,"enable_color_correct_adjust":false,"enable_color_curves":true,"enable_color_match_adjust":false,"enable_color_wheels":true,"enable_lut":false,"enable_smart_color_adjust":false,"extra_material_refs":["1CE5339B-97F5-42ec-9501-1AE6DAAD7A81","163B164F-ED35-4f10-B9E2-6673A6AA84F4","7B58F69E-B9B5-4c43-B630-9A023C7E8D24"],"group_id":"","hdr_settings":null,"id":"40726986-64C9-4806-B051-E426385009F3","intensifies_audio":false,"is_placeholder":false,"is_tone_modify":false,"keyframe_refs":[],"last_nonzero_volume":1.0,"material_id":"5B9FD6D6-05F8-47AB-A31F-9AEB19514945","render_index":0,"responsive_layout":{"enable":false,"horizontal_pos_layout":0,"size_layout":0,"target_follow":"","vertical_pos_layout":0},"reverse":false,"source_timerange":{"duration":5736000,"start":0},"speed":1.0,"target_timerange":{"duration":5766666,"start":0},"template_id":"","template_scene":"default","track_attribute":0,"track_render_index":0,"uniform_scale":null,"visible":true,"volume":1.0},{"caption_info":null,"cartoon":false,"clip":null,"common_keyframes":[],"enable_adjust":false,"enable_color_correct_adjust":false,"enable_color_curves":true,"enable_color_match_adjust":false,"enable_color_wheels":true,"enable_lut":false,"enable_smart_color_adjust":false,"extra_material_refs":["1CE5339B-97F5-42ec-9501-1AE6DAAD7A81","163B164F-ED35-4f10-B9E2-6673A6AA84F4","7B58F69E-B9B5-4c43-B630-9A023C7E8D24"],"group_id":"","hdr_settings":null,"id":"7B2DE6B2-BC95-42A9-AA92-0CFF9BEF1808","intensifies_audio":false,"is_placeholder":false,"is_tone_modify":false,"keyframe_refs":[],"last_nonzero_volume":1.0,"material_id":"A5995AB3-F515-42AF-85D9-EE2EECB8F323","render_index":0,"responsive_layout":{"enable":false,"horizontal_pos_layout":0,"size_layout":0,"target_follow":"","vertical_pos_layout":0},"reverse":false,"source_timerange":{"duration":4464000,"start":0},"speed":1.0,"target_timerange":{"duration":4464000,"start":5736000},"template_id":"","template_scene":"default","track_attribute":0,"track_render_index":0,"uniform_scale":null,"visible":true,"volume":1.0},{"caption_info":null,"cartoon":false,"clip":null,"common_keyframes":[],"enable_adjust":false,"enable_color_correct_adjust":false,"enable_color_curves":true,"enable_color_match_adjust":false,"enable_color_wheels":true,"enable_lut":false,"enable_smart_color_adjust":false,"extra_material_refs":["1CE5339B-97F5-42ec-9501-1AE6DAAD7A81","163B164F-ED35-4f10-B9E2-6673A6AA84F4","7B58F69E-B9B5-4c43-B630-9A023C7E8D24"],"group_id":"","hdr_settings":null,"id":"ED634FA9-9D76-4147-83B1-F34174D95784","intensifies_audio":false,"is_placeholder":false,"is_tone_modify":false,"keyframe_refs":[],"last_nonzero_volume":1.0,"material_id":"75502071-83C0-4886-9FB7-D17806AA2878","render_index":0,"responsive_layout":{"enable":false,"horizontal_pos_layout":0,"size_layout":0,"target_follow":"","vertical_pos_layout":0},"reverse":false,"source_timerange":{"duration":6384000,"start":0},"speed":1.0,"target_timerange":{"duration":6384000,"start":10200000},"template_id":"","template_scene":"default","track_attribute":0,"track_render_index":0,"uniform_scale":null,"visible":true,"volume":1.0},{"caption_info":null,"cartoon":false,"clip":null,"common_keyframes":[],"enable_adjust":false,"enable_color_correct_adjust":false,"enable_color_curves":true,"enable_color_match_adjust":false,"enable_color_wheels":true,"enable_lut":false,"enable_smart_color_adjust":false,"extra_material_refs":["1CE5339B-97F5-42ec-9501-1AE6DAAD7A81","163B164F-ED35-4f10-B9E2-6673A6AA84F4","7B58F69E-B9B5-4c43-B630-9A023C7E8D24"],"group_id":"","hdr_settings":null,"id":"7941A446-099A-4041-80D9-2843DFFCCC90","intensifies_audio":false,"is_placeholder":false,"is_tone_modify":false,"keyframe_refs":[],"last_nonzero_volume":1.0,"material_id":"FE25FD25-869A-4E4B-8435-13BD813024DC","render_index":0,"responsive_layout":{"enable":false,"horizontal_pos_layout":0,"size_layout":0,"target_follow":"","vertical_pos_layout":0},"reverse":false,"source_timerange":{"duration":4224000,"start":0},"speed":1.0,"target_timerange":{"duration":4224000,"start":16584000},"template_id":"","template_scene":"default","track_attribute":0,"track_render_index":0,"uniform_scale":null,"visible":true,"volume":1.0},{"caption_info":null,"cartoon":false,"clip":null,"common_keyframes":[],"enable_adjust":false,"enable_color_correct_adjust":false,"enable_color_curves":true,"enable_color_match_adjust":false,"enable_color_wheels":true,"enable_lut":false,"enable_smart_color_adjust":false,"extra_material_refs":["1CE5339B-97F5-42ec-9501-1AE6DAAD7A81","163B164F-ED35-4f10-B9E2-6673A6AA84F4","7B58F69E-B9B5-4c43-B630-9A023C7E8D24"],"group_id":"","hdr_settings":null,"id":"968637AF-6CCD-46A0-AEE7-1CCB1A907D58","intensifies_audio":false,"is_placeholder":false,"is_tone_modify":false,"keyframe_refs":[],"last_nonzero_volume":1.0,"material_id":"859687C3-210E-40D8-BEF4-4C5953E094B1","render_index":0,"responsive_layout":{"enable":false,"horizontal_pos_layout":0,"size_layout":0,"target_follow":"","vertical_pos_layout":0},"reverse":false,"source_timerange":{"duration":4656000,"start":0},"speed":1.0,"target_timerange":{"duration":4656000,"start":20808000},"template_id":"","template_scene":"default","track_attribute":0,"track_render_index":0,"uniform_scale":null,"visible":true,"volume":1.0},{"caption_info":null,"cartoon":false,"clip":null,"common_keyframes":[],"enable_adjust":false,"enable_color_correct_adjust":false,"enable_color_curves":true,"enable_color_match_adjust":false,"enable_color_wheels":true,"enable_lut":false,"enable_smart_color_adjust":false,"extra_material_refs":["1CE5339B-97F5-42ec-9501-1AE6DAAD7A81","163B164F-ED35-4f10-B9E2-6673A6AA84F4","7B58F69E-B9B5-4c43-B630-9A023C7E8D24"],"group_id":"","hdr_settings":null,"id":"2369FC7B-A1F8-4378-ADDE-D4391DEE9C4B","intensifies_audio":false,"is_placeholder":false,"is_tone_modify":false,"keyframe_refs":[],"last_nonzero_volume":1.0,"material_id":"D03A6E62-72FE-46DA-927E-140496D19A79","render_index":0,"responsive_layout":{"enable":false,"horizontal_pos_layout":0,"size_layout":0,"target_follow":"","vertical_pos_layout":0},"reverse":false,"source_timerange":{"duration":5256000,"start":0},"speed":1.0,"target_timerange":{"duration":5256000,"start":25464000},"template_id":"","template_scene":"default","track_attribute":0,"track_render_index":0,"uniform_scale":null,"visible":true,"volume":1.0},{"caption_info":null,"cartoon":false,"clip":null,"common_keyframes":[],"enable_adjust":false,"enable_color_correct_adjust":false,"enable_color_curves":true,"enable_color_match_adjust":false,"enable_color_wheels":true,"enable_lut":false,"enable_smart_color_adjust":false,"extra_material_refs":["1CE5339B-97F5-42ec-9501-1AE6DAAD7A81","163B164F-ED35-4f10-B9E2-6673A6AA84F4","7B58F69E-B9B5-4c43-B630-9A023C7E8D24"],"group_id":"","hdr_settings":null,"id":"5BEE3068-1D6C-4255-98CE-133AE8BC0FCF","intensifies_audio":false,"is_placeholder":false,"is_tone_modify":false,"keyframe_refs":[],"last_nonzero_volume":1.0,"material_id":"EE371D25-2982-44E4-BEF9-D3EB1D96382F","render_index":0,"responsive_layout":{"enable":false,"horizontal_pos_layout":0,"size_layout":0,"target_follow":"","vertical_pos_layout":0},"reverse":false,"source_timerange":{"duration":6096000,"start":0},"speed":1.0,"target_timerange":{"duration":6096000,"start":30720000},"template_id":"","template_scene":"default","track_attribute":0,"track_render_index":0,"uniform_scale":null,"visible":true,"volume":1.0},{"caption_info":null,"cartoon":false,"clip":null,"common_keyframes":[],"enable_adjust":false,"enable_color_correct_adjust":false,"enable_color_curves":true,"enable_color_match_adjust":false,"enable_color_wheels":true,"enable_lut":false,"enable_smart_color_adjust":false,"extra_material_refs":["1CE5339B-97F5-42ec-9501-1AE6DAAD7A81","163B164F-ED35-4f10-B9E2-6673A6AA84F4","7B58F69E-B9B5-4c43-B630-9A023C7E8D24"],"group_id":"","hdr_settings":null,"id":"A4976033-5994-4B4E-878E-CE80661C67A4","intensifies_audio":false,"is_placeholder":false,"is_tone_modify":false,"keyframe_refs":[],"last_nonzero_volume":1.0,"material_id":"1AEDBA89-25D0-4EA5-98F9-C4540A117AFC","render_index":0,"responsive_layout":{"enable":false,"horizontal_pos_layout":0,"size_layout":0,"target_follow":"","vertical_pos_layout":0},"reverse":false,"source_timerange":{"duration":4848000,"start":0},"speed":1.0,"target_timerange":{"duration":4848000,"start":36816000},"template_id":"","template_scene":"default","track_attribute":0,"track_render_index":0,"uniform_scale":null,"visible":true,"volume":1.0},{"caption_info":null,"cartoon":false,"clip":null,"common_keyframes":[],"enable_adjust":false,"enable_color_correct_adjust":false,"enable_color_curves":true,"enable_color_match_adjust":false,"enable_color_wheels":true,"enable_lut":false,"enable_smart_color_adjust":false,"extra_material_refs":["1CE5339B-97F5-42ec-9501-1AE6DAAD7A81","163B164F-ED35-4f10-B9E2-6673A6AA84F4","7B58F69E-B9B5-4c43-B630-9A023C7E8D24"],"group_id":"","hdr_settings":null,"id":"61B67977-A7F2-4962-B845-5B77AD0BCC77","intensifies_audio":false,"is_placeholder":false,"is_tone_modify":false,"keyframe_refs":[],"last_nonzero_volume":1.0,"material_id":"70DA20FC-4B4B-4C69-80AA-96B7EF901682","render_index":0,"responsive_layout":{"enable":false,"horizontal_pos_layout":0,"size_layout":0,"target_follow":"","vertical_pos_layout":0},"reverse":false,"source_timerange":{"duration":4536000,"start":0},"speed":1.0,"target_timerange":{"duration":4536000,"start":41664000},"template_id":"","template_scene":"default","track_attribute":0,"track_render_index":0,"uniform_scale":null,"visible":true,"volume":1.0},{"caption_info":null,"cartoon":false,"clip":null,"common_keyframes":[],"enable_adjust":false,"enable_color_correct_adjust":false,"enable_color_curves":true,"enable_color_match_adjust":false,"enable_color_wheels":true,"enable_lut":false,"enable_smart_color_adjust":false,"extra_material_refs":["1CE5339B-97F5-42ec-9501-1AE6DAAD7A81","163B164F-ED35-4f10-B9E2-6673A6AA84F4","7B58F69E-B9B5-4c43-B630-9A023C7E8D24"],"group_id":"","hdr_settings":null,"id":"2A45CC62-A314-4A0A-8C67-166821EE5A76","intensifies_audio":false,"is_placeholder":false,"is_tone_modify":false,"keyframe_refs":[],"last_nonzero_volume":1.0,"material_id":"1001E729-EA6E-4C53-9B7A-768B5603EC29","render_index":0,"responsive_layout":{"enable":false,"horizontal_pos_layout":0,"size_layout":0,"target_follow":"","vertical_pos_layout":0},"reverse":false,"source_timerange":{"duration":11328000,"start":0},"speed":1.0,"target_timerange":{"duration":11328000,"start":46200000},"template_id":"","template_scene":"default","track_attribute":0,"track_render_index":0,"uniform_scale":null,"visible":true,"volume":1.0},{"caption_info":null,"cartoon":false,"clip":null,"common_keyframes":[],"enable_adjust":false,"enable_color_correct_adjust":false,"enable_color_curves":true,"enable_color_match_adjust":false,"enable_color_wheels":true,"enable_lut":false,"enable_smart_color_adjust":false,"extra_material_refs":["1CE5339B-97F5-42ec-9501-1AE6DAAD7A81","163B164F-ED35-4f10-B9E2-6673A6AA84F4","7B58F69E-B9B5-4c43-B630-9A023C7E8D24"],"group_id":"","hdr_settings":null,"id":"08EA276C-F561-4677-A513-3484C3861FFB","intensifies_audio":false,"is_placeholder":false,"is_tone_modify":false,"keyframe_refs":[],"last_nonzero_volume":1.0,"material_id":"9A4CB105-2837-461E-ABF7-9EF283DB9040","render_index":0,"responsive_layout":{"enable":false,"horizontal_pos_layout":0,"size_layout":0,"target_follow":"","vertical_pos_layout":0},"reverse":false,"source_timerange":{"duration":8640000,"start":0},"speed":1.0,"target_timerange":{"duration":8640000,"start":57528000},"template_id":"","template_scene":"default","track_attribute":0,"track_render_index":0,"uniform_scale":null,"visible":true,"volume":1.0},{"caption_info":null,"cartoon":false,"clip":null,"common_keyframes":[],"enable_adjust":false,"enable_color_correct_adjust":false,"enable_color_curves":true,"enable_color_match_adjust":false,"enable_color_wheels":true,"enable_lut":false,"enable_smart_color_adjust":false,"extra_material_refs":["1CE5339B-97F5-42ec-9501-1AE6DAAD7A81","163B164F-ED35-4f10-B9E2-6673A6AA84F4","7B58F69E-B9B5-4c43-B630-9A023C7E8D24"],"group_id":"","hdr_settings":null,"id":"593AD3D6-1118-4289-B72E-C55C328ADAE8","intensifies_audio":false,"is_placeholder":false,"is_tone_modify":false,"keyframe_refs":[],"last_nonzero_volume":1.0,"material_id":"11B6D487-B718-4FA5-A6DE-CB962ECF5E4E","render_index":0,"responsive_layout":{"enable":false,"horizontal_pos_layout":0,"size_layout":0,"target_follow":"","vertical_pos_layout":0},"reverse":false,"source_timerange":{"duration":6696000,"start":0},"speed":1.0,"target_timerange":{"duration":6696000,"start":66168000},"template_id":"","template_scene":"default","track_attribute":0,"track_render_index":0,"uniform_scale":null,"visible":true,"volume":1.0},{"caption_info":null,"cartoon":false,"clip":null,"common_keyframes":[],"enable_adjust":false,"enable_color_correct_adjust":false,"enable_color_curves":true,"enable_color_match_adjust":false,"enable_color_wheels":true,"enable_lut":false,"enable_smart_color_adjust":false,"extra_material_refs":["1CE5339B-97F5-42ec-9501-1AE6DAAD7A81","163B164F-ED35-4f10-B9E2-6673A6AA84F4","7B58F69E-B9B5-4c43-B630-9A023C7E8D24"],"group_id":"","hdr_settings":null,"id":"58F929FA-D539-488A-87B0-4906401A8D16","intensifies_audio":false,"is_placeholder":false,"is_tone_modify":false,"keyframe_refs":[],"last_nonzero_volume":1.0,"material_id":"A2DAB74B-71F4-4EE1-9C4D-A6D1385EDAA2","render_index":0,"responsive_layout":{"enable":false,"horizontal_pos_layout":0,"size_layout":0,"target_follow":"","vertical_pos_layout":0},"reverse":false,"source_timerange":{"duration":7944000,"start":0},"speed":1.0,"target_timerange":{"duration":7944000,"start":72864000},"template_id":"","template_scene":"default","track_attribute":0,"track_render_index":0,"uniform_scale":null,"visible":true,"volume":1.0},{"caption_info":null,"cartoon":false,"clip":null,"common_keyframes":[],"enable_adjust":false,"enable_color_correct_adjust":false,"enable_color_curves":true,"enable_color_match_adjust":false,"enable_color_wheels":true,"enable_lut":false,"enable_smart_color_adjust":false,"extra_material_refs":["1CE5339B-97F5-42ec-9501-1AE6DAAD7A81","163B164F-ED35-4f10-B9E2-6673A6AA84F4","7B58F69E-B9B5-4c43-B630-9A023C7E8D24"],"group_id":"","hdr_settings":null,"id":"A4381624-752E-4841-B494-EA427791FF8B","intensifies_audio":false,"is_placeholder":false,"is_tone_modify":false,"keyframe_refs":[],"last_nonzero_volume":1.0,"material_id":"F90A47C3-6AAD-4C70-9DB3-ECFFC45D7C0B","render_index":0,"responsive_layout":{"enable":false,"horizontal_pos_layout":0,"size_layout":0,"target_follow":"","vertical_pos_layout":0},"reverse":false,"source_timerange":{"duration":4992000,"start":0},"speed":1.0,"target_timerange":{"duration":4992000,"start":80808000},"template_id":"","template_scene":"default","track_attribute":0,"track_render_index":0,"uniform_scale":null,"visible":true,"volume":1.0}],"type":"audio"},{"attribute":0,"flag":0,"id":"2A7D51DC-5625-4C99-92CE-527B989B17AE","is_default_name":false,"name":"","segments":[{"caption_info":null,"cartoon":false,"clip":{"alpha":1.0,"flip":{"horizontal":false,"vertical":false},"rotation":0.0,"scale":{"x":1.0,"y":1.0},"transform":{"x":0.0,"y":-0.5770905923344949}},"common_keyframes":[],"enable_adjust":false,"enable_color_correct_adjust":false,"enable_color_curves":true,"enable_color_match_adjust":false,"enable_color_wheels":true,"enable_lut":false,"enable_smart_color_adjust":false,"extra_material_refs":[],"group_id":"","hdr_settings":null,"id":"91A4ADAC-1ED3-4091-91D6-B5519FE6328D","intensifies_audio":false,"is_placeholder":false,"is_tone_modify":false,"keyframe_refs":[],"last_nonzero_volume":1.0,"material_id":"29B5D28C-EF5D-4963-A881-A12071AE12FB","render_index":0,"responsive_layout":{"enable":false,"horizontal_pos_layout":0,"size_layout":0,"target_follow":"","vertical_pos_layout":0},"reverse":false,"source_timerange":null,"speed":1.0,"target_timerange":{"duration":200000,"start":100000},"template_id":"","template_scene":"default","track_attribute":0,"track_render_index":1,"uniform_scale":{"on":true,"value":1.0},"visible":true,"volume":1.0},{"caption_info":null,"cartoon":false,"clip":{"alpha":1.0,"flip":{"horizontal":false,"vertical":false},"rotation":0.0,"scale":{"x":1.0,"y":1.0},"transform":{"x":0.0,"y":-0.5770905923344949}},"common_keyframes":[],"enable_adjust":false,"enable_color_correct_adjust":false,"enable_color_curves":true,"enable_color_match_adjust":false,"enable_color_wheels":true,"enable_lut":false,"enable_smart_color_adjust":false,"extra_material_refs":[],"group_id":"","hdr_settings":null,"id":"49A3D3D3-D814-41F2-A706-EB65F9DA3603","intensifies_audio":false,"is_placeholder":false,"is_tone_modify":false,"keyframe_refs":[],"last_nonzero_volume":1.0,"material_id":"E3DDF280-12DF-4B45-AD2D-B450C32ADBB8","render_index":0,"responsive_layout":{"enable":false,"horizontal_pos_layout":0,"size_layout":0,"target_follow":"","vertical_pos_layout":0},"reverse":false,"source_timerange":null,"speed":1.0,"target_timerange":{"duration":400000,"start":300000},"template_id":"","template_scene":"default","track_attribute":0,"track_render_index":1,"uniform_scale":{"on":true,"value":1.0},"visible":true,"volume":1.0},{"caption_info":null,"cartoon":false,"clip":{"alpha":1.0,"flip":{"horizontal":false,"vertical":false},"rotation":0.0,"scale":{"x":1.0,"y":1.0},"transform":{"x":0.0,"y":-0.5770905923344949}},"common_keyframes":[],"enable_adjust":false,"enable_color_correct_adjust":false,"enable_color_curves":true,"enable_color_match_adjust":false,"enable_color_wheels":true,"enable_lut":false,"enable_smart_color_adjust":false,"extra_material_refs":[],"group_id":"","hdr_settings":null,"id":"08CDB262-DCFC-477F-BDB5-25BAC9FAF8D4","intensifies_audio":false,"is_placeholder":false,"is_tone_modify":false,"keyframe_refs":[],"last_nonzero_volume":1.0,"material_id":"F76D9FBE-ABFF-4571-84AA-C9A463A38258","render_index":0,"responsive_layout":{"enable":false,"horizontal_pos_layout":0,"size_layout":0,"target_follow":"","vertical_pos_layout":0},"reverse":false,"source_timerange":null,"speed":1.0,"target_timerange":{"duration":187000,"start":700000},"template_id":"","template_scene":"default","track_attribute":0,"track_render_index":1,"uniform_scale":{"on":true,"value":1.0},"visible":true,"volume":1.0},{"caption_info":null,"cartoon":false,"clip":{"alpha":1.0,"flip":{"horizontal":false,"vertical":false},"rotation":0.0,"scale":{"x":1.0,"y":1.0},"transform":{"x":0.0,"y":-0.5770905923344949}},"common_keyframes":[],"enable_adjust":false,"enable_color_correct_adjust":false,"enable_color_curves":true,"enable_color_match_adjust":false,"enable_color_wheels":true,"enable_lut":false,"enable_smart_color_adjust":false,"extra_material_refs":[],"group_id":"","hdr_settings":null,"id":"350997C2-5105-4AF7-AFB8-EB2FAAFC4CE0","intensifies_audio":false,"is_placeholder":false,"is_tone_modify":false,"keyframe_refs":[],"last_nonzero_volume":1.0,"material_id":"08FF802C-DE6E-44FD-A246-B5AB73787A67","render_index":0,"responsive_layout":{"enable":false,"horizontal_pos_layout":0,"size_layout":0,"target_follow":"","vertical_pos_layout":0},"reverse":false,"source_timerange":null,"speed":1.0,"target_timerange":{"duration":337000,"start":900000},"template_id":"","template_scene":"default","track_attribute":0,"track_render_index":1,"uniform_scale":{"on":true,"value":1.0},"visible":true,"volume":1.0},{"caption_info":null,"cartoon":false,"clip":{"alpha":1.0,"flip":{"horizontal":false,"vertical":false},"rotation":0.0,"scale":{"x":1.0,"y":1.0},"transform":{"x":0.0,"y":-0.5770905923344949}},"common_keyframes":[],"enable_adjust":false,"enable_color_correct_adjust":false,"enable_color_curves":true,"enable_color_match_adjust":false,"enable_color_wheels":true,"enable_lut":false,"enable_smart_color_adjust":false,"extra_material_refs":[],"group_id":"","hdr_settings":null,"id":"33BF458C-BDE4-4661-B0D1-63AA931DDE00","intensifies_audio":false,"is_placeholder":false,"is_tone_modify":false,"keyframe_refs":[],"last_nonzero_volume":1.0,"material_id":"1CBFB786-1E00-4B5A-8131-D081D632A826","render_index":0,"responsive_layout":{"enable":false,"horizontal_pos_layout":0,"size_layout":0,"target_follow":"","vertical_pos_layout":0},"reverse":false,"source_timerange":null,"speed":1.0,"target_timerange":{"duration":700000,"start":1250000},"template_id":"","template_scene":"default","track_attribute":0,"track_render_index":1,"uniform_scale":{"on":true,"value":1.0},"visible":true,"volume":1.0}],"type":"text"}],"update_time":0,"version":360000},"formula_id":"","id":"AB63234A-1FC3-4e35-A1D1-5866FED17FF9","name":"","precompile_combination":false,"type":"combination"}],"effects":[],"flowers":[],"green_screens":[],"handwrites":[],"hsl":[],"images":[],"log_color_wheels":[],"loudnesses":[],"manual_deformations":[],"masks":[],"material_animations":[{"animations":[],"id":"9F07B8EF-0358-4995-9FBF-1F9518C01CA3","multi_language_current":"none","type":"sticker_animation"},{"animations":[],"id":"DBF3DBE2-C378-4f6e-8972-5036A59CBBDC","multi_language_current":"none","type":"sticker_animation"}],"material_colors":[],"multi_language_refs":[],"placeholders":[],"plugin_effects":[],"primary_color_wheels":[],"realtime_denoises":[],"shapes":[],"smart_crops":[],"smart_relights":[],"sound_channel_mappings":[{"audio_channel_mapping":0,"id":"03F32B33-D50D-4f83-AB61-0489046E392B","is_config_open":false,"type":"none"},{"audio_channel_mapping":0,"id":"3471C4B1-9295-4a01-A9B3-428D27F4FB1D","is_config_open":false,"type":"none"}],"speeds":[{"curve_speed":null,"id":"7C40E465-8D86-4bdb-9F1E-540090566955","mode":0,"speed":1.5,"type":"speed"},{"curve_speed":null,"id":"0AC2348A-E09E-4c09-8CE7-E7C2C96C1800","mode":0,"speed":1.0,"type":"speed"}],"stickers":[],"tail_leaders":[],"text_templates":[],"texts":[{"add_type":0,"alignment":1,"background_alpha":1.0,"background_color":"#ffde00","background_height":0.2800000011920929,"background_horizontal_offset":0.0,"background_round_radius":0.4000000059604645,"background_style":1,"background_vertical_offset":0.0,"background_width":0.2800000011920929,"base_content":"","bold_width":0.00800000037997961,"border_alpha":1.0,"border_color":"#ffffff","border_width":0.08,"caption_template_info":{"category_id":"","category_name":"","effect_id":"","is_new":false,"path":"","request_id":"","resource_id":"","resource_name":"","source_platform":0},"check_flag":63,"combo_info":{"text_templates":[]},"content":"{\"text\": \"Spongebob's House\\nGets Invaded, Then\\nIt Gets WEIRDER!\", \"styles\": [{\"fill\": {\"content\": {\"solid\": {\"color\": [0, 0, 0]}}}, \"font\": {\"path\": \"C:/Users/Administrator/AppData/Local/JianyingPro/User Data/Cache/effect/36825429/b316a0c93d766f2bcefb9962ebb92f46/励字憨憨简.ttf\", \"id\": \"7316745679055884837\"}, \"size\": 15, \"bold\": true, \"useLetterColor\": true, \"range\": [0, 53]}]}","fixed_height":-1.0,"fixed_width":-1.0,"font_category_id":"","font_category_name":"","font_id":"","font_name":"","font_path":"C:/Users/Administrator/AppData/Local/JianyingPro/User Data/Cache/effect/36825429/b316a0c93d766f2bcefb9962ebb92f46/励字憨憨简.ttf","font_resource_id":"7316745679055884837","font_size":15.0,"font_source_platform":0,"font_team_id":"","font_title":"none","font_url":"","fonts":[{"category_id":"preset","category_name":"剪映预设","effect_id":"7316745679055884837","file_uri":"","id":"1706A787-EF38-49a9-9E9D-415EE2DEEA51","path":"C:/Users/Administrator/AppData/Local/JianyingPro/User Data/Cache/effect/36825429/b316a0c93d766f2bcefb9962ebb92f46/励字憨憨简.ttf","request_id":"20250927200917C5D9CE53A31AFE42693A","resource_id":"7316745679055884837","source_platform":0,"team_id":"","title":"励字憨憨简"}],"force_apply_line_max_width":false,"global_alpha":1.0,"group_id":"","has_shadow":false,"id":"203C51C2-3053-4c9c-9A66-C54F8C34BC3E","initial_scale":1.0,"inner_padding":-1.0,"is_rich_text":false,"italic_degree":0,"ktv_color":"","language":"","layer_weight":1,"letter_spacing":0.0,"line_feed":1,"line_max_width":0.82,"line_spacing":0.02,"multi_language_current":"none","name":"","original_size":[],"preset_category":"","preset_category_id":"","preset_has_set_alignment":false,"preset_id":"","preset_index":0,"preset_name":"","recognize_task_id":"","recognize_type":0,"relevance_segment":[],"shadow_alpha":0.9,"shadow_angle":-45.0,"shadow_color":"#34ee4e","shadow_distance":5.0,"shadow_point":{"x":0.6363961030678928,"y":-0.6363961030678928},"shadow_smoothing":0.45,"shape_clip_x":false,"shape_clip_y":false,"source_from":"","style_name":"","sub_type":0,"subtitle_keywords":null,"subtitle_template_original_fontsize":0.0,"text_alpha":1.0,"text_color":"#000000","text_curve":null,"text_preset_resource_id":"","text_size":30,"text_to_audio_ids":[],"tts_auto_update":false,"type":"text","typesetting":0,"underline":false,"underline_offset":0.22,"underline_width":0.05,"use_effect_default_color":true,"words":{"end_time":[],"start_time":[],"text":[]}}],"time_marks":[],"transitions":[],"video_effects":[],"video_trackings":[],"videos":[{"aigc_type":"none","audio_fade":null,"cartoon_path":"","category_id":"","category_name":"","check_flag":65535,"crop":{"lower_left_x":0.0,"lower_left_y":1.0,"lower_right_x":1.0,"lower_right_y":1.0,"upper_left_x":0.0,"upper_left_y":0.0,"upper_right_x":1.0,"upper_right_y":0.0},"crop_ratio":"free","crop_scale":1.0,"duration":86133333,"extra_type_option":2,"formula_id":"","freeze":null,"has_audio":true,"height":1920,"id":"3C9B9D47-758A-4d1b-8F60-2FA6CA646583","intensifies_audio_path":"","intensifies_path":"","is_ai_generate_content":false,"is_copyright":true,"is_text_edit_overdub":false,"is_unified_beauty_mode":false,"local_id":"","local_material_id":"","material_id":"","material_name":"复合片段2","material_url":"","matting":{"flag":0,"has_use_quick_brush":false,"has_use_quick_eraser":false,"interactiveTime":[],"path":"","strokes":[]},"media_path":"","object_locked":null,"origin_material_id":"","path":"","picture_from":"none","picture_set_category_id":"","picture_set_category_name":"","request_id":"","reverse_intensifies_path":"","reverse_path":"","smart_motion":null,"source":0,"source_platform":0,"stable":{"matrix_path":"","stable_level":0,"time_range":{"duration":0,"start":0}},"team_id":"","type":"video","video_algorithm":{"algorithms":[],"complement_frame_config":null,"deflicker":null,"gameplay_configs":[],"motion_blur_config":null,"noise_reduction":null,"path":"","quality_enhance":null,"time_range":null},"width":1080}],"vocal_beautifys":[],"vocal_separations":[{"choice":0,"id":"561B79B7-BE98-46e4-8561-A7D33F14AD06","production_path":"","time_range":null,"type":"vocal_separation"},{"choice":0,"id":"B1A5764B-5C59-4de3-80DA-42B90AFBA748","production_path":"","time_range":null,"type":"vocal_separation"}]},"mutable_config":null,"name":"","new_version":"110.0.0","platform":{"app_id":3704,"app_source":"lv","app_version":"5.9.0","device_id":"d4d9c34f9062e2e30ab6e7581b8eee4d","hard_disk_id":"a64e9af2e02c4f44ef20cb384905b989","mac_address":"c965a276aebf8dbc7d0ed20374348db6,935e26c4debc946c68fb877a8986b18a","os":"windows","os_version":"10.0.26100"},"relationships":[],"render_index_track_mode_on":true,"retouch_cover":null,"source":"default","static_cover_image_path":"","time_marks":null,"tracks":[{"attribute":0,"flag":0,"id":"C29A5AD8-F6A2-4C68-B23B-F55CEA290548","is_default_name":true,"name":"","segments":[{"caption_info":null,"cartoon":false,"clip":{"alpha":1.0,"flip":{"horizontal":false,"vertical":false},"rotation":0.0,"scale":{"x":1.0,"y":1.0},"transform":{"x":0.0,"y":0.0}},"common_keyframes":[],"enable_adjust":true,"enable_color_correct_adjust":false,"enable_color_curves":true,"enable_color_match_adjust":false,"enable_color_wheels":true,"enable_lut":true,"enable_smart_color_adjust":false,"extra_material_refs":["AB63234A-1FC3-4e35-A1D1-5866FED17FF9","7C40E465-8D86-4bdb-9F1E-540090566955","A87B32C3-2E86-4dfd-93F8-4FBD3B010A5E","77CF3670-3127-4e48-AD59-8CE31862AD3F","9F07B8EF-0358-4995-9FBF-1F9518C01CA3","03F32B33-D50D-4f83-AB61-0489046E392B","561B79B7-BE98-46e4-8561-A7D33F14AD06"],"group_id":"","hdr_settings":{"intensity":1.0,"mode":1,"nits":1000},"id":"9482DEBD-EF9F-417d-958A-1F2669BC5FFE","intensifies_audio":false,"is_placeholder":false,"is_tone_modify":false,"keyframe_refs":[],"last_nonzero_volume":3.258575916290283,"material_id":"3C9B9D47-758A-4d1b-8F60-2FA6CA646583","render_index":0,"responsive_layout":{"enable":false,"horizontal_pos_layout":0,"size_layout":0,"target_follow":"","vertical_pos_layout":0},"reverse":false,"source_timerange":{"duration":53943999,"start":0},"speed":1.5,"target_timerange":{"duration":35966666,"start":0},"template_id":"","template_scene":"default","track_attribute":0,"track_render_index":0,"uniform_scale":{"on":true,"value":1.0},"visible":true,"volume":3.258575916290283}],"type":"video"},{"attribute":0,"flag":0,"id":"06BEAD6A-F891-4a9e-86ED-D1B15DCEBA06","is_default_name":true,"name":"","segments":[{"caption_info":null,"cartoon":false,"clip":{"alpha":1.0,"flip":{"horizontal":false,"vertical":false},"rotation":0.0,"scale":{"x":0.8086822582201321,"y":0.8086822582201321},"transform":{"x":0.0,"y":0.7002617801047122}},"common_keyframes":[],"enable_adjust":false,"enable_color_correct_adjust":false,"enable_color_curves":true,"enable_color_match_adjust":false,"enable_color_wheels":true,"enable_lut":false,"enable_smart_color_adjust":false,"extra_material_refs":["DBF3DBE2-C378-4f6e-8972-5036A59CBBDC"],"group_id":"","hdr_settings":null,"id":"97BDD187-E7B1-4712-8E13-1D71D640C296","intensifies_audio":false,"is_placeholder":false,"is_tone_modify":false,"keyframe_refs":[],"last_nonzero_volume":1.0,"material_id":"203C51C2-3053-4c9c-9A66-C54F8C34BC3E","render_index":14000,"responsive_layout":{"enable":false,"horizontal_pos_layout":0,"size_layout":0,"target_follow":"","vertical_pos_layout":0},"reverse":false,"source_timerange":null,"speed":1.0,"target_timerange":{"duration":35966666,"start":0},"template_id":"","template_scene":"default","track_attribute":0,"track_render_index":1,"uniform_scale":{"on":true,"value":1.0},"visible":true,"volume":1.0}],"type":"text"},{"attribute":0,"flag":0,"id":"1C399F60-8A91-4307-B328-9669C3DF4DB6","is_default_name":true,"name":"","segments":[{"caption_info":null,"cartoon":false,"clip":null,"common_keyframes":[],"enable_adjust":false,"enable_color_correct_adjust":false,"enable_color_curves":true,"enable_color_match_adjust":false,"enable_color_wheels":true,"enable_lut":false,"enable_smart_color_adjust":false,"extra_material_refs":["0AC2348A-E09E-4c09-8CE7-E7C2C96C1800","92FCA733-9C30-49f4-9457-58A915139254","61F47D25-02B5-4d12-9E47-AC17687EC8D5","3471C4B1-9295-4a01-A9B3-428D27F4FB1D","B1A5764B-5C59-4de3-80DA-42B90AFBA748"],"group_id":"","hdr_settings":null,"id":"188C8324-587F-4ad7-9FD5-0AB2B48AA921","intensifies_audio":false,"is_placeholder":false,"is_tone_modify":false,"keyframe_refs":[],"last_nonzero_volume":1.0,"material_id":"BA5A150F-5673-4aed-843A-AB70D0E63A93","render_index":0,"responsive_layout":{"enable":false,"horizontal_pos_layout":0,"size_layout":0,"target_follow":"","vertical_pos_layout":0},"reverse":false,"source_timerange":{"duration":35966666,"start":0},"speed":1.0,"target_timerange":{"duration":35966666,"start":0},"template_id":"","template_scene":"default","track_attribute":0,"track_render_index":0,"uniform_scale":null,"visible":true,"volume":1.0}],"type":"audio"}],"update_time":0,"version":360000}